<svg id="Layer_1" data-name="Layer 1" xmlns="http://www.w3.org/2000/svg" viewBox="0 0 540.43 374.93"><defs><style>.cls-1{fill:#bf9456}</style></defs><path class="cls-1" d="M280 295.54H116a3 3 0 00-3 3V427a3 3 0 003 3h42.37a3 3 0 013 3v20.28a3 3 0 01-3 3h-9.49a3 3 0 000 6h98.47a3 3 0 000-6h-9.61a3 3 0 01-3-3V433a3 3 0 013-3H280a3 3 0 003-3V298.53a3 3 0 00-3-2.99zm-80.2 124.27a3.15 3.15 0 113.14-3.14 3.15 3.15 0 01-3.14 3.14zm79.06-17.52a4 4 0 01-4 4H121.33a4 4 0 01-4-4v-98.9a4 4 0 014-4h153.55a4 4 0 014 4z" transform="translate(-113 -91.07)"/><path class="cls-1" d="M253.05 98.16h10.44l-5.13-17.74-5.31 17.74z"/><path class="cls-1" d="M410.3 165.3a3.4 3.4 0 00-3.24-1.88h-2V200h2.17a3.3 3.3 0 003.1-2l6.12-12.16a9.83 9.83 0 001.14-4 8.3 8.3 0 00-.92-3.84zM532.21 119v-5.85a22.08 22.08 0 00-22.07-22.08H301.75a22.08 22.08 0 00-22.07 22.08V119zm-27.93-16.29a3.49 3.49 0 11-3.49 3.49 3.49 3.49 0 013.49-3.49zm-12.8 0a3.49 3.49 0 11-3.48 3.49 3.49 3.49 0 013.48-3.49zm-14 0a3.49 3.49 0 11-3.48 3.49 3.49 3.49 0 013.52-3.49z" transform="translate(-113 -91.07)"/><path class="cls-1" d="M279.68 124.82v105.94a22.08 22.08 0 0022.07 22.08h208.39a22.08 22.08 0 0022.07-22.08V124.82zm106.25 80.43a2.75 2.75 0 01-2 .91 2.92 2.92 0 01-3.1-2.25l-2.51-8.41h-14.15l-2.73 9a1.84 1.84 0 01-.92 1.12 3.13 3.13 0 01-1.77.54 3 3 0 01-2.25-.92 3.14 3.14 0 01-.88-2.25 4 4 0 01.18-1.15l12.54-42.37a3 3 0 013.1-2.32 2.66 2.66 0 012.87 2l12.35 43a3.1 3.1 0 01.15.92 3 3 0 01-.88 2.18zm36-16.53L415.76 201a9.51 9.51 0 01-3.39 3.78 9 9 0 01-4.95 1.42h-11.83a3.11 3.11 0 01-3.1-3.1 3.12 3.12 0 01.9-2.23 2.94 2.94 0 012.2-.94h3.24v-36.51h-3.17a2.91 2.91 0 01-2.19-.94 3.09 3.09 0 01-.91-2.23 3 3 0 01.91-2.18 3 3 0 012.19-.92h12.24a8.59 8.59 0 014.67 1.55 9.64 9.64 0 013.34 3.65l6.09 12.39a15.14 15.14 0 011.73 7 15.29 15.29 0 01-1.81 6.98zm39 10.47a6.85 6.85 0 01-2 4.87 6.1 6.1 0 01-4.48 2.1h-16.68a8.53 8.53 0 01-8.22-8.08q0-3.47 3.24-3.46a2.89 2.89 0 012.14.9 2.94 2.94 0 01.89 2.12 2.2 2.2 0 00.68 1.66 2.36 2.36 0 001.71.66h15.42c.66 0 1-.44 1.07-1.32v-5.72L431 175.29c-1.09-1.4-1.54-2.59-1.37-3.57v-7.45a6.92 6.92 0 012.06-5 6.72 6.72 0 015-2.12h16.11a8.07 8.07 0 015.59 2.49 8 8 0 012.63 6 3 3 0 01-.93 2.25 3 3 0 01-2.09.92 2.68 2.68 0 01-2.17-.72 7.65 7.65 0 01-1.13-2.67 2.33 2.33 0 00-2.38-2H437c-.74 0-1.11.24-1.11.7v6.9l23.68 17.85a3 3 0 011.47 3zm-45.52 264.92c-2 0-4.14-.08-6.57-.24a85.24 85.24 0 016.41-170.23h.57a85.24 85.24 0 017.12 170.14c-2.57.22-5.1.33-7.53.33zm.39-162.19h-.54a77 77 0 00-5.83 153.7c2.19.14 4.17.21 6 .21 2.19 0 4.48-.1 6.82-.3a77 77 0 00-6.43-153.61z" transform="translate(-113 -91.07)"/><path class="cls-1" d="M298.28 206.71h8.27V368.9h-8.27z"/><path class="cls-1" d="M221.32 283.66h162.19v8.27H221.32z"/><path class="cls-1" d="M415.41 351.48a105 105 0 01-64.29-21.86l-3.44-2.62 2.82-3.31a85.1 85.1 0 0164.75-30h.57a85.09 85.09 0 0164.51 30l2.81 3.31-3.43 2.65a105 105 0 01-64.3 21.86zm-55.63-25.76a97.11 97.11 0 00111.27 0 76.72 76.72 0 00-55.25-23.8h-.54a76.81 76.81 0 00-55.48 23.8z" transform="translate(-113 -91.07)"/><path class="cls-1" d="M415.41 464.11c-2 0-4.14-.08-6.57-.24l-1.26-.08-1-.76a103.31 103.31 0 01-32.29-41.85 102.17 102.17 0 01-8.08-40.05v-2.38a103.22 103.22 0 0146.86-84.14l.3-.2 1-.76h1.39a85.24 85.24 0 017.1 170.14c-2.49.21-5.02.32-7.45.32zm-4.77-8.42c1.73.1 3.31.14 4.77.14 2.19 0 4.48-.1 6.82-.3A77 77 0 00417 301.94a94.93 94.93 0 00-42.52 77v2.16a94.16 94.16 0 007.44 36.9 95.13 95.13 0 0028.72 37.69z" transform="translate(-113 -91.07)"/><path class="cls-1" d="M415.41 464.11c-2 0-4.14-.08-6.57-.24a84.81 84.81 0 01-57.42-28.69l-3-3.41 3.67-2.67a107.09 107.09 0 0163.32-20.57 107.55 107.55 0 0163.33 20.57l3.67 2.67-3 3.41a84.82 84.82 0 01-56.47 28.6c-2.57.22-5.1.33-7.53.33zm-54.59-31a76.51 76.51 0 0048.61 22.5c2.19.14 4.17.21 6 .21 2.19 0 4.48-.1 6.82-.3a76.42 76.42 0 0047.75-22.4 96.78 96.78 0 00-17.09-9 99.16 99.16 0 00-92.1 9z" transform="translate(-113 -91.07)"/><path class="cls-1" d="M415.41 464.11c-2 0-4.14-.08-6.57-.24a85.24 85.24 0 016.41-170.23h1.26l1.49 1a100.78 100.78 0 0139.28 43.56 99.65 99.65 0 019.55 40.61v2.35A100.83 100.83 0 01425 463l-.93.67-1.14.1c-2.56.23-5.09.34-7.52.34zm-1.29-162.18a77 77 0 00-4.69 153.69 80.79 80.79 0 0011.65 0 92.5 92.5 0 0037.5-74.49V379a91.53 91.53 0 00-8.77-37.3 92.53 92.53 0 00-35.69-39.77zm229.73-1.34H562a9.58 9.58 0 00-9.58 9.58v146.25A9.58 9.58 0 00562 466h81.85a9.58 9.58 0 009.58-9.58V310.17a9.58 9.58 0 00-9.58-9.58zm-47.24 3.68a1.17 1.17 0 011.16-1.16h12.83a1.17 1.17 0 011.16 1.16v1.47a1.16 1.16 0 01-1.16 1.16h-12.83a1.16 1.16 0 01-1.16-1.16zm6.95 155.42a4.42 4.42 0 114.42-4.42 4.42 4.42 0 01-4.42 4.42zm44.82-23.47a9.58 9.58 0 01-9.58 9.58h-71.75a9.58 9.58 0 01-9.58-9.58V319.15a9.58 9.58 0 019.58-9.58h71.75a9.58 9.58 0 019.58 9.58z" transform="translate(-113 -91.07)"/></svg>