<svg id="Layer_1" data-name="Layer 1" xmlns="http://www.w3.org/2000/svg" viewBox="0 0 497 305"><defs><style>.cls-1{fill:#bf9456}</style></defs><path class="cls-1" d="M635.89 385.6a57 57 0 00-109.78 0H515a7 7 0 01-6.94-7V207.92A7 7 0 01515 201h61.52a6.87 6.87 0 014.91 2L648 269.58a6.86 6.86 0 012 4.91V298h-21a11 11 0 000 22h21v58.65a7 7 0 01-7 7zM523 295a8 8 0 00-8 8v28a8 8 0 0016 0v-28a8 8 0 00-8-8zm-2.83-88a5.18 5.18 0 00-5.17 5.17v55.66a5.18 5.18 0 005.17 5.17h110.17a5.17 5.17 0 003.63-8.86l-56.51-55.65a5.17 5.17 0 00-3.64-1.49z" transform="translate(-155 -135)"/><path class="cls-1" d="M576.48 203a4.91 4.91 0 013.5 1.45L646.55 271a4.91 4.91 0 011.45 3.5V296h-19a13 13 0 000 26h19v56.65a5 5 0 01-5 5h-5.67a59 59 0 00-112.76 0H515a5 5 0 01-4.94-5V207.92A5 5 0 01515 203h61.52m-56.31 72h110.13a7.18 7.18 0 005-12.29l-56.52-55.65a7.14 7.14 0 00-5-2.06h-53.65a7.18 7.18 0 00-7.17 7.17v55.65a7.18 7.18 0 007.17 7.18m2.83 66a10 10 0 0010-10v-28a10 10 0 00-20 0v28a10 10 0 0010 10m53.48-142H515a9 9 0 00-8.94 8.95v170.7a9 9 0 008.94 9h12.69a55 55 0 01106.7 0h8.7a9 9 0 009-9V318H629a9 9 0 010-18h23v-25.51a9 9 0 00-2.62-6.33l-66.57-66.57a9 9 0 00-6.33-2.62zm-56.31 72a3.17 3.17 0 01-3.17-3.18v-55.65a3.17 3.17 0 013.17-3.17h53.65a3.18 3.18 0 012.23.91l56.52 55.65a3.18 3.18 0 01-2.23 5.44H520.17zm2.83 66a6 6 0 01-6-6v-28a6 6 0 0112 0v28a6 6 0 01-6 6zm-257 17a43 43 0 1043 43 43 43 0 00-43-43zm0 63a20 20 0 1120-20 20 20 0 01-20 20z" transform="translate(-155 -135)"/><path class="cls-1" d="M581 354a43 43 0 1043 43 43 43 0 00-43-43zm0 63a20 20 0 1120-20 20 20 0 01-20 20zM475.64 135h-300.1A20.53 20.53 0 00155 155.54V303h171a7 7 0 010 14H155v20h10a12 12 0 0112 12v8a12 12 0 01-12 12h-9.9a20.53 20.53 0 0020.44 18.6h37.11a55 55 0 01106.7 0h156.29a20.53 20.53 0 0020.53-20.53V155.54A20.53 20.53 0 00475.64 135z" transform="translate(-155 -135)"/></svg>