<svg id="Layer_1" data-name="Layer 1" xmlns="http://www.w3.org/2000/svg" viewBox="0 0 432.95 435.53"><defs><style>.cls-1{fill:#bf9456}</style></defs><path class="cls-1" transform="rotate(-45 57.75 630.35)" d="M219.27 421.35h59.02v57.16h-59.02z"/><path class="cls-1" d="M249.44 409.56l39.71 39.72-41 41-39.71-39.71 41-41m0-1.41L207 450.59l41.13 41.12 42.43-42.43-41.12-41.13zM566 85.65a24.17 24.17 0 0111.42-2.91 21.23 21.23 0 0115.16 6.15l17.27 17.27c6.77 6.76 8.06 17.61 3.24 26.58z" transform="translate(-183.52 -82.24)"/><path class="cls-1" d="M577.39 83.24a20.75 20.75 0 0114.81 6l17.27 17.28c6.46 6.45 7.81 16.73 3.47 25.39l-46.13-46.13a23.58 23.58 0 0110.58-2.54m0-1a24.71 24.71 0 00-12.24 3.29l48 48c5.2-9.11 4.28-20.48-3-27.76L592.9 88.54a21.7 21.7 0 00-15.51-6.3zM253.86 403c.75-.91 1.46-1.7 2.18-2.42a34.48 34.48 0 017-5.41.39.39 0 00.1-.08l.44-.44a.41.41 0 00.19 0 .46.46 0 00.23-.06 32.45 32.45 0 0115.31-3.91 29.53 29.53 0 0112.81 2.89.54.54 0 00.22.05.49.49 0 00.35-.15l138.18-138.08a.51.51 0 00.13-.39.53.53 0 00-.15-.36l-2.06-2.05c-8.64-8.65-8.11-23.27 1.21-32.58l3.62-3.62 48.64 48.64-3.62 3.63a24.85 24.85 0 01-17.39 7.36 21.27 21.27 0 01-15.18-6.16l-1.24-1.23a.48.48 0 00-.7 0L305.69 407.12a.5.5 0 00-.1.55 31.35 31.35 0 01-1.53 27 .48.48 0 000 .42l-.44.44-.08.1a34.51 34.51 0 01-5.4 7c-.73.72-1.52 1.44-2.42 2.18z" transform="translate(-183.52 -82.24)"/><path class="cls-1" d="M433.64 217.14l47.94 47.93-3.27 3.27a24.35 24.35 0 01-17 7.22 20.82 20.82 0 01-14.83-6l-1.23-1.24a1 1 0 00-1.42 0L305.34 406.76a1 1 0 00-.21 1.11 30.83 30.83 0 01-1.51 26.57.87.87 0 00-.12.49l-.26.26a1.56 1.56 0 00-.16.2 33.84 33.84 0 01-5.33 6.93c-.61.61-1.28 1.22-2 1.85L254.54 403a27.11 27.11 0 011.86-2 33.51 33.51 0 016.92-5.33.65.65 0 00.21-.16l.25-.25a1 1 0 00.47-.12 31.94 31.94 0 0115.07-3.85 29 29 0 0112.59 2.84 1.13 1.13 0 00.44.1 1 1 0 00.7-.3l138.17-138.19a1 1 0 00.3-.7 1 1 0 00-.3-.71l-2.05-2.06a20.74 20.74 0 01-6-15.65 24.14 24.14 0 017.2-16.21l3.27-3.27m0-1.42l-4 4c-9.52 9.52-10.06 24.42-1.2 33.28l2.06 2.06-138.13 138.13a29.75 29.75 0 00-13-2.94 32.89 32.89 0 00-15.54 4l-.22-.22-.76.77a34.52 34.52 0 00-7.13 5.48 36.42 36.42 0 00-2.5 2.81l42.46 42.46a34.51 34.51 0 002.81-2.49 35 35 0 005.49-7.14l.76-.76-.21-.21a31.71 31.71 0 001.55-27.45L444.5 269l1.23 1.23a21.78 21.78 0 0015.54 6.31 25.15 25.15 0 0017.73-7.49l4-4-49.35-49.35z" transform="translate(-183.52 -82.24)"/><path class="cls-1" transform="rotate(-45 30.786 657.308)" d="M216.69 448.32h10.25v57.16h-10.25z"/><path class="cls-1" d="M205.23 453.77l39.71 39.71-6.54 6.52-39.71-39.71 6.54-6.54m0-1.42l-7.95 8 41.12 41.13 8-8-41.13-41.13zm232.65-240.14L560 90.09c.33-.33.67-.63 1-.93l48.57 48.56c-.3.35-.61.69-.94 1l-122.1 122.11z" transform="translate(-183.52 -82.24)"/><path class="cls-1" d="M561 89.84l47.9 47.9c-.2.22-.4.44-.6.64L486.53 260.12l-47.94-47.93L560.33 90.44l.64-.6m0-1.37c-.47.41-.94.82-1.38 1.27L437.18 212.19l49.35 49.35L609 139.09c.44-.45.85-.92 1.26-1.39L561 88.47zm-39.92 428.79a8.09 8.09 0 01-5.72-2.41l-14.57-14.58 46.74-46.74c3.87-3.87 3.68-10.36-.42-14.46a10.73 10.73 0 00-7.61-3.2 9.61 9.61 0 00-6.85 2.79l-46.74 46.74-56-56 46.74-46.74c3.87-3.88 3.69-10.36-.41-14.46a10.72 10.72 0 00-7.61-3.21 9.6 9.6 0 00-6.85 2.79L415 414.51 380.5 380l84.5-84.44 134.79 134.82a8.15 8.15 0 012.42 5.5 7.17 7.17 0 01-2.07 5.32l-74 74a7.1 7.1 0 01-5.09 2.06z" transform="translate(-183.52 -82.24)"/><path class="cls-1" d="M465 296.27l134.44 134.47a7.62 7.62 0 012.27 5.15 6.64 6.64 0 01-1.93 4.95l-74 74a6.63 6.63 0 01-4.74 1.92 7.55 7.55 0 01-5.37-2.27l-14.22-14.22 46.39-46.38c4.07-4.07 3.88-10.88-.41-15.17a11.22 11.22 0 00-8-3.35 10.08 10.08 0 00-7.2 2.94l-46.39 46.38-55.3-55.3L477 383c4.07-4.07 3.89-10.87-.41-15.17a11.22 11.22 0 00-8-3.35 10.1 10.1 0 00-7.21 2.94L415 413.81 381.21 380 465 296.27m0-1.42L379.8 380l35.2 35.2 47.09-47.09a9.12 9.12 0 016.5-2.65 10.29 10.29 0 017.25 3.06c3.92 3.91 4.1 10.07.42 13.75l-47.1 47.1 56.72 56.72L533 439a9.1 9.1 0 016.49-2.64 10.25 10.25 0 017.26 3.06c3.91 3.91 4.1 10.07.41 13.75l-47.09 47.09L515 515.2a8.65 8.65 0 006.08 2.56 7.67 7.67 0 005.45-2.21l74-74a8.16 8.16 0 00-.34-11.52L465 294.85zm-180-10.32l46.74-46.74a9.6 9.6 0 002.79-7.16 10.94 10.94 0 00-10.81-10.5 9.61 9.61 0 00-6.85 2.79l-46.74 46.74-52.93-52.93L264 170a9.62 9.62 0 002.79-7.16 11 11 0 00-10.81-10.51 9.6 9.6 0 00-6.85 2.79l-46.74 46.74L186.44 186a7.68 7.68 0 01-.35-10.82l74-74a7.1 7.1 0 015.09-2.07 8.08 8.08 0 015.72 2.41L400 230.56 315.51 315z" transform="translate(-183.52 -82.24)"/><path class="cls-1" d="M265.18 99.58a7.54 7.54 0 015.37 2.27l128.71 128.71-83.75 83.76-29.79-29.79 46.39-46.39c4.07-4.06 3.88-10.87-.41-15.16a11.24 11.24 0 00-8-3.35 10.1 10.1 0 00-7.2 2.93L270.14 269l-52.22-52.22 46.38-46.39c4.07-4.07 3.89-10.87-.41-15.17a11.22 11.22 0 00-8-3.35 10.1 10.1 0 00-7.21 2.94L202.3 201.2l-15.51-15.6a7.16 7.16 0 01-.34-10.1l74-74a6.65 6.65 0 014.74-1.92m0-1a7.63 7.63 0 00-5.44 2.21l-74 74a8.15 8.15 0 00.35 11.52l16.25 16.25 47.09-47.09a9.12 9.12 0 016.5-2.65 10.29 10.29 0 017.25 3.06c3.92 3.91 4.1 10.07.42 13.75l-47.1 47.1 53.64 53.64 47.1-47.1a9.09 9.09 0 016.49-2.64 10.3 10.3 0 017.26 3.05c3.91 3.92 4.09 10.07.41 13.76l-47.09 47.09 31.2 31.2 85.17-85.17-129.43-129.42a8.65 8.65 0 00-6.08-2.56z" transform="translate(-183.52 -82.24)"/></svg>