<svg xmlns="http://www.w3.org/2000/svg" width="343" height="251.536"><defs><filter id="a" x="0" y="28.536" width="343" height="223" filterUnits="userSpaceOnUse"><feOffset dy="3"/><feGaussianBlur stdDeviation="3" result="b"/><feFlood flood-opacity=".161"/><feComposite operator="in" in2="b"/><feComposite in="SourceGraphic"/></filter></defs><g transform="translate(0 .003)" filter="url(#a)"><text transform="translate(9 125.54)" fill="#fff" font-size="101" font-family="Prestage" letter-spacing=".08em"><tspan x="0" y="0">Art san</tspan></text></g><g fill="#fff"><path d="M178.078 1h13.086v9.328h-.05l.038 1.037c.008.219.012.445.012.671v18.41c0 .85-.328 1.595-.976 2.216-.64.613-1.581 1.1-2.722 1.408l-.74.2v21.679l.875.112c1.713.217 2.458.561 2.675.728v69.103c-.14.105-.588.367-1.79.593-1.073.201-2.446.312-3.865.312-1.42 0-2.792-.11-3.865-.312-1.202-.226-1.65-.488-1.79-.593V56.789c.216-.167.961-.511 2.674-.728l.874-.111V34.27l-.739-.2c-1.14-.308-2.082-.795-2.721-1.408-.648-.621-.976-1.367-.976-2.216v-18.41c0-.221.004-.448.012-.672l.038-1.036h-.05V1z"/><path d="M179.078 2v7.328h.086l-.075 2.072c-.007.213-.011.427-.011.636v18.41c0 .582.212 1.057.668 1.494.519.497 1.31.9 2.29 1.165l1.478.399V56.83l-1.748.222c-.908.115-1.471.259-1.8.37v67.839c.722.236 2.292.535 4.655.535 2.362 0 3.932-.299 4.655-.535v-67.84c-.33-.11-.892-.254-1.8-.37l-1.75-.22V33.503l1.48-.4c.979-.264 1.77-.666 2.29-1.164.456-.437.668-.912.668-1.494v-18.41c0-.214-.004-.427-.012-.634l-.076-2.074h.088V2h-11.086m-2-2h15.086v11.328h-.013c.009.234.013.47.013.708v18.41c0 2.387-1.945 3.917-4.437 4.59v20.033c2.02.256 3.549.782 3.549 1.577v69.391c0 1.173-3.328 1.76-6.655 1.76-3.328 0-6.656-.587-6.656-1.76V56.646c0-.795 1.528-1.321 3.55-1.577V35.035c-2.493-.673-4.437-2.202-4.437-4.589v-18.41c0-.237.004-.474.013-.708h-.013V0z"/></g></svg>