<svg id="Layer_1" data-name="Layer 1" xmlns="http://www.w3.org/2000/svg" viewBox="0 0 332.79 135.95"><defs><style>.cls-5{fill:#fff}.cls-3{letter-spacing:.06em}.cls-4{letter-spacing:.08em}</style></defs><g id="Logo"><text transform="translate(0 125.54)" style="isolation:isolate" fill="#fff" font-size="101" font-family="Prestage" letter-spacing=".08em" id="_Art_san_2" data-name="Art san 2"><tspan>A</tspan><tspan class="cls-3" x="78.37" y="0">r</tspan><tspan class="cls-4" x="119.08" y="0">t </tspan><tspan class="cls-3" x="195.84" y="0">s</tspan><tspan class="cls-4" x="236.54" y="0">an</tspan></text><g id="Union_1" data-name="Union 1"><path class="cls-5" d="M280.66 329h13.09v9.33h-.05v20.08a3 3 0 01-1 2.22 6.36 6.36 0 01-2.72 1.41l-.74.2V384l.88.11a6.29 6.29 0 012.67.73v69.1a4.55 4.55 0 01-1.79.59 24.25 24.25 0 01-7.73 0 4.55 4.55 0 01-1.79-.59v-69.1a6.37 6.37 0 012.68-.73l.87-.11v-21.7l-.74-.2a6.36 6.36 0 01-2.72-1.41 3 3 0 01-1-2.22v-20.08z" transform="translate(-111.59 -328.03)"/><path class="cls-5" d="M281.66 330v7.33h.09l-.07 2.07v19.04a2 2 0 00.67 1.5 5.35 5.35 0 002.29 1.16l1.48.4v23.33l-1.75.22a10 10 0 00-1.8.37v67.84a20.71 20.71 0 009.31 0v-67.81a10 10 0 00-1.8-.37l-1.75-.22v-23.33l1.48-.4a5.25 5.25 0 002.29-1.16 2 2 0 00.67-1.5v-19.04l-.08-2.07h.09V330h-11.12m-2-2h15.09v30.44c0 2.39-1.94 3.92-4.44 4.59v20c2 .25 3.55.78 3.55 1.57v69.39c0 1.18-3.33 1.76-6.65 1.76s-6.66-.58-6.66-1.76v-69.32c0-.79 1.53-1.32 3.55-1.57v-20c-2.49-.67-4.44-2.2-4.44-4.59v-19.15z" transform="translate(-111.59 -328.03)"/></g></g></svg>