<svg data-name="Layer 1" xmlns="http://www.w3.org/2000/svg" viewBox="0 0 304.51 136.09"><text transform="translate(0 125.69)" style="isolation:isolate" fill="#231f20" font-size="101" font-family="Prestage" letter-spacing=".08em" data-name="Art san 2">A<tspan x="50.09" y="0" letter-spacing=".06em">r</tspan><tspan x="90.8" y="0">t </tspan><tspan x="167.56" y="0" letter-spacing=".06em">s</tspan><tspan x="208.26" y="0">an</tspan></text><path d="M141.25 0h13.09v9.44h-.05v20.35a3 3 0 01-1 2.24 6.26 6.26 0 01-2.72 1.42l-.74.2v21.93l.87.11a6.29 6.29 0 012.68.74v69.89a4.47 4.47 0 01-1.79.6 23.5 23.5 0 01-7.73 0 4.47 4.47 0 01-1.79-.6V56.43a6.22 6.22 0 012.67-.74l.88-.11V33.65l-.74-.2a6.26 6.26 0 01-2.72-1.42 3 3 0 01-1-2.24V9.44z" fill="#231f20" data-name="Union 1"/></svg>