<svg xmlns="http://www.w3.org/2000/svg" width="160.238" height="131.653"><g stroke="#754c24"><g stroke-width="8" stroke-linejoin="round"><path fill="none" d="M16.687 33.418h126.865v71.419H16.687z"/><path d="M16.687 82.726h126.865v44.927H16.687z" fill="#c69c6d"/></g><g fill="#c69c6d" stroke-linejoin="bevel"><path d="M4 33.045h25.373v4.553a12.687 12.687 0 01-12.686 12.686h0A12.687 12.687 0 014 37.598v-4.553h0zm25.373 0h25.373v4.553A12.687 12.687 0 0142.06 50.284h0a12.687 12.687 0 01-12.687-12.686v-4.553h0z" stroke-width="8"/><path d="M54.746 33.045h25.373v4.553a12.687 12.687 0 01-12.686 12.686h0a12.687 12.687 0 01-12.687-12.686v-4.553h0zm25.373 0h25.373v4.553a12.687 12.687 0 01-12.686 12.686h0a12.687 12.687 0 01-12.687-12.686v-4.553h0zm25.373 0h25.373v4.553a12.687 12.687 0 01-12.686 12.686h0a12.687 12.687 0 01-12.687-12.686v-4.553h0z" stroke-width="8"/><path d="M130.865 33.045h25.373v4.553a12.687 12.687 0 01-12.686 12.686h0a12.687 12.687 0 01-12.687-12.686v-4.553h0z" stroke-width="8"/><g stroke-width="9"><path d="M29.373 35.144H4L27.656 4.5h17.488z"/><path d="M54.746 35.144H29.373L45.143 4.5h17.488z"/><path d="M80.119 35.144H54.746L62.631 4.5h17.488zm25.373 0H80.119V4.5h17.488zm25.373 0h-25.369L97.611 4.5h17.485z"/><path d="M156.236 35.144h-25.371L115.095 4.5h17.488z"/></g></g></g></svg>