<svg xmlns="http://www.w3.org/2000/svg" width="209.124" height="129.891"><g transform="translate(-92.941 -104.646)" stroke="#754c24" stroke-width="8"><path d="M291.033 206.001H226.89v-41.693h54.774c11.558 0 18.5 8.741 15.72 18.783z" fill="#c69c6d" stroke-linejoin="round" stroke-miterlimit="10"/><path d="M249.763 201.216c3.396-9.923 12.866-15.668 21.159-12.83s12.258 13.179 8.861 23.104-12.868 15.667-21.159 12.83-12.258-13.18-8.861-23.104z" fill="#fff"/><rect width="36.84" height="10.634" rx="5.317" transform="translate(228.881 130.189)" fill="#c69c6d" stroke-miterlimit="10"/><path d="M275.884 164.308H226.89V140.76h34.884z" fill="#fff" stroke-linejoin="bevel"/><path d="M237.098 206l-116.672.531 14.432-97.355 115.79-.531z" fill="#fff" stroke-linejoin="round" stroke-miterlimit="10"/><ellipse cx="18.99" cy="15.865" rx="18.99" ry="15.865" transform="rotate(-71.108 216.703 17.223)" fill="#fff" stroke-linejoin="bevel"/><path stroke-linecap="round" stroke-linejoin="bevel" fill="#c69c6d" d="M139.835 140.916l41.345-.156m-84.239-13.166h60.135m-50.557 32.478l53.278-.702"/><path d="M261.603 205.296c.736-2.15 2.788-3.394 4.584-2.78s2.655 2.856 1.92 5.005-2.788 3.394-4.584 2.78-2.656-2.856-1.92-5.005zm-113.273-2.499c.736-2.15 2.788-3.394 4.584-2.78s2.655 2.856 1.92 5.005-2.788 3.394-4.584 2.78-2.656-2.856-1.92-5.005z" fill="#754c24"/></g></svg>