<svg xmlns="http://www.w3.org/2000/svg" width="191.322" height="126.727"><path d="M187.322 59.39l-.469 57.408-165.762-2.2.3-36.934.167-20.474z" fill="#c69c6d" stroke="#754c24" stroke-linecap="round" stroke-linejoin="round" stroke-width="8"/><path stroke-width="8" stroke="#754c24" stroke-linecap="round" stroke-linejoin="round" fill="none" d="M185.628 107.821l-102.284-1.358M22.845 92.834l85.291-.674m-85.469 22.455l41.44.55M21.441 71.744l98.591 1.309m65.872.875l-44.554-.592M185.777 89.5l-23.235-.308M22.928 82.758l23.235.308m86.82-24.952s-31.169-.1-33.412-20.7c-2.468-22.67 22.633-11.3 22.633-11.3"/><path d="M62.4 36.23l2.913-9.04 26.464 13.854-2.912 9.04z" fill="#e6e6e6" stroke="#1a1a1a" stroke-linecap="round" stroke-width="4"/><path stroke-width="4" stroke="#1a1a1a" stroke-linecap="round" stroke-linejoin="round" fill="#ccc" d="M63.954 31.41l-9.007-4.919"/><path d="M18.26 8.195l.446-1.383c.83-2.578 3.148-3.816 5.173-2.755L52.406 18.99c2.026 1.06 2.993 4.013 2.16 6.595l-.445 1.384c-.831 2.581-3.15 3.819-5.17 2.756L20.42 14.79c-2.026-1.057-2.992-4.014-2.161-6.596z" fill="#965353" stroke="#1a1a1a" stroke-width="4"/></svg>