<svg xmlns="http://www.w3.org/2000/svg" width="683.765" height="118.135" viewBox="0 0 683.765 118.135"><path d="M215.331,2626.321q13.069,2.437,17.13,6.866,8.194,7.681,8.2,20.6v9.007q-.887,4.726-4.283,4.726H225.15q-3.839-.516-3.839-4.726v-1.255a7.137,7.137,0,0,1,.887-3.469q-.814-12.405-8.2-12.4-5.98,1.109-5.981,5.539v66.6q.738,6.867,5.981,6.867,7.753-1.033,7.753-5.98v-6.867a22.016,22.016,0,0,0-.444-3.912q1.182-5.167,6.424-5.168h7.311q5.609.591,5.611,4.356v8.564q0,22.078-21.929,27.91a36.513,36.513,0,0,1-5.169.442q-16.467,0-24.071-18.458-.814-2.216-.812-7.754v-4.724a4.208,4.208,0,0,0-.443-2.142l.443-2.585v-5.169q0-3.468-.443-8.121a3.4,3.4,0,0,0,.443-1.329l-.443-.812a21.967,21.967,0,0,0,.443-3.913v-1.255q0-1.33-.443-1.329l.443-2.142v-9.893q0-4.5-.443-9.451a26.168,26.168,0,0,0,.443-5.095q0-1.476-.443-7.309,4.06-17.647,7.753-17.647Q204.55,2626.321,215.331,2626.321Z" transform="translate(-188.233 -2625.879)" fill="#4c4948"/><path d="M261,2626.321q18.9,0,25.03,19.419a58.225,58.225,0,0,1,.885,10.78v56.041q0,21.484-15.135,28.869a31.973,31.973,0,0,1-12.035,2.583q-9.526,0-18.164-7.751-7.31-9.376-7.311-17.278.443-11,.444-12.921,0-1.4-.444-7.31a24.038,24.038,0,0,1,.444-2.584q-.443-3.839-.444-4.726.443-10.483.444-13.363l-.444-.887a3.229,3.229,0,0,0,.444-1.7v-1.772a19.426,19.426,0,0,0-.444-5.169,56.258,56.258,0,0,0,.444-6.424v-11.666q0-6.867,6.866-16.391,9.6-7.753,17.277-7.753Zm-7.311,27.171v63.351q1.846,8.195,6.867,8.2H261q2.8,0,6.054-5.168.443-11.963.443-19.862a22.605,22.605,0,0,0-.443-4.283,26.592,26.592,0,0,0,.443-5.167v-.444q0-3.468-.443-8.194a9.534,9.534,0,0,0,.887-3.028,18.308,18.308,0,0,1-.887-5.167q0-3.914.443-14.251,0-.293-.443-2.583a26.621,26.621,0,0,0,.443-5.169v-.37q0-4.208-7.383-6.054Q253.685,2645.3,253.685,2653.493Z" transform="translate(-170.986 -2625.879)" fill="#4c4948"/><path d="M431.116,2626.321q12.921,0,12.922,2.584v108.686a3.748,3.748,0,0,0,.368,1.7q-1.328,4.726-4.725,4.725H428.975q-2.808,0-4.282-3.839,0-2.51.443-10.779-.443-9.451-.443-12.478a23.629,23.629,0,0,1,.811-5.1l-.811-9.451a21.2,21.2,0,0,0,.443-3.47q-.443-5.98-.443-7.753l.443-1.7a12.831,12.831,0,0,1-.443-3.4,4.389,4.389,0,0,1,.443-2.214l-.887-6.424.887-5.537q0-.738-.443-5.169.441-7.9.443-9.894,0-.369-.443-3.471l.443-2.14-.443-2.142a2.932,2.932,0,0,1,.443-1.255q0-.369-.443-3.469,0-17.572,3.4-17.574Z" transform="translate(-99.804 -2625.879)" fill="#4c4948"/><path d="M449.995,2626l4.282.443h5.169q3.47,0,8.122-.443a3.394,3.394,0,0,0,1.329.443,3.241,3.241,0,0,0,1.7-.443q7.677.443,12.478.443H487.8a33.482,33.482,0,0,0,4.726-.443q4.724,1.255,4.725,4.282v11.15q0,4.356-6.866,4.355h-9.451v93.623q-.887,4.282-4.282,4.282H464.614a6.754,6.754,0,0,1-3.027-3.84,21.98,21.98,0,0,1,.443-3.912q-.443-7.459-.443-9.451,0-5.318.443-9.821-.443-7.974-.443-13.365t.443-20.156q-.443-5.168-.443-7.752l.443-4.283a3.234,3.234,0,0,0-.443-1.7,52.73,52.73,0,0,0,.443-6.054v-12.035a34.429,34.429,0,0,0-1.329-5.539H450.437a4.983,4.983,0,0,1-5.167-3.47l.443-.885a2.942,2.942,0,0,0-.443-1.257l.443-2.141a59.246,59.246,0,0,0-.887-7.31Q447.263,2626,449.995,2626Z" transform="translate(-92.095 -2625.999)" fill="#4c4948"/><path d="M566.312,2626.321h7.309q3.027,0,3.471.443a33.668,33.668,0,0,1,4.725-.443H597.4q5.611,0,5.612,3.839v9.526q-.592,5.612-4.356,5.611H581v29.312q16.393.961,16.392,3.839v11.666q0,4.506-6.941,4.726H581v28.944a11.205,11.205,0,0,0,4.283,1.255h6.5a50.984,50.984,0,0,0,5.981-.444q5.242.887,5.242,4.356v8.2q-.295,6.866-4.8,6.866H565.87q-3.4,0-4.283-4.725v-3.914a36.875,36.875,0,0,1,.444-5.612,12.831,12.831,0,0,1-.444-3.4,24.035,24.035,0,0,1,.444-2.584l-.444-.887.444-1.7q0-.959-.444-4.8.443-5.318.444-5.612a21.106,21.106,0,0,0-.444-3.4q.443-5.021.444-9.525v-2.141a15.023,15.023,0,0,0-.444-3.913,21.8,21.8,0,0,0,.444-4.282V2684.5a37.948,37.948,0,0,0-.444-6.054,27.961,27.961,0,0,0,.444-5.611v-.812a3.64,3.64,0,0,0-.444-1.772,2.937,2.937,0,0,0,.444-1.255,26.6,26.6,0,0,0-.444-5.169q.443-6.052.444-11.665,0-2.14-.444-6.424a17.26,17.26,0,0,0,.887-3.914q-.371-2.582-.887-2.583l.444-2.584-.444-6.055Q563.432,2626.323,566.312,2626.321Z" transform="translate(-48.348 -2625.879)" fill="#4c4948"/><path d="M604.631,2626q5.388.443,6.054.443.295,0,2.584-.443,7.458,0,8.64,6.866l15.062,44.448h.443l.885-.442a2.953,2.953,0,0,1-.443-1.255,26.265,26.265,0,0,1,.443-2.659l-.443-.812a15.008,15.008,0,0,0,.812-5.612V2665.2q0-8.563-.37-11.591.369-4.8.37-12.552v-1.7q0-3.47-.37-8.2,1.623-5.168,5.169-5.169h8.638a6.069,6.069,0,0,1,5.539,3.027v110.826q-.814,4.282-4.283,4.282H642.583q-4.8,0-7.753-15.948-3.914-8.64-10.78-30.2-1.328,0-3.47-7.309-.814,0-.812-1.7h-.443v48.658a3.376,3.376,0,0,0,.443,1.772q-1.4,4.726-4.8,4.725H603.376q-1.328-.221-3.47-3.912.443-4.283.443-6.424v-16.834l.443-2.584q-.443,0-.885-14.25l.443-.812a2.979,2.979,0,0,0-.443-1.329q.443-7.236.443-11.223,0-6.348-.443-12.035l.885-8.638-.885-3.47a50.913,50.913,0,0,0,.443-5.981v-3.914a3.233,3.233,0,0,0-.443-1.7,3.4,3.4,0,0,0,.443-1.329q0-6.275-.887-17.2Q600.864,2626,604.631,2626Z" transform="translate(-34.157 -2625.999)" fill="#4c4948"/><path d="M652.669,2626l4.282.443h5.169q3.468,0,8.122-.443a3.387,3.387,0,0,0,1.329.443,3.24,3.24,0,0,0,1.7-.443q7.679.443,12.478.443h4.726A33.485,33.485,0,0,0,695.2,2626q4.724,1.255,4.726,4.282v11.15q0,4.356-6.868,4.355H683.6v93.623q-.884,4.282-4.282,4.282H667.287a6.759,6.759,0,0,1-3.027-3.84,22.109,22.109,0,0,1,.443-3.912q-.441-7.459-.443-9.451,0-5.318.443-9.821-.441-7.974-.443-13.365t.443-20.156q-.441-5.168-.443-7.752l.443-4.283a3.234,3.234,0,0,0-.443-1.7,52.737,52.737,0,0,0,.443-6.054v-12.035a34.511,34.511,0,0,0-1.328-5.539H653.111a4.983,4.983,0,0,1-5.169-3.47l.443-.885a2.943,2.943,0,0,0-.443-1.257l.443-2.141a59.425,59.425,0,0,0-.885-7.31Q649.935,2626,652.669,2626Z" transform="translate(-16.158 -2625.999)" fill="#4c4948"/><path d="M570.285,2626.442h-6.866a11.165,11.165,0,0,0-4.726.813q-2.363,0-8.564,22.371-4.726,18.682-6.941,24.513-7.9,29.61-9.821,29.609c0,.492-23.258-72.137-23.258-72.137q0-5.611-11.961-5.612-8.2,1.477-8.2,5.981.887,2.214.887,9.894v2.584a35.9,35.9,0,0,1-.444,5.612,12.14,12.14,0,0,1,.444,3.027q0,4.135-.444,9.008.443,5.834.444,8.122,0,2.142-.444,6.5l.444,5.981q-.443,8.417-.444,11.149l.444,1.772a3.972,3.972,0,0,0-.444,2.142v1.255l.444,3.027a.392.392,0,0,0-.444.443,2.943,2.943,0,0,0,.444,1.256l-.444,2.14.444,5.169q0,1.994-.444,9.894l.444,5.981-.444.885a3.242,3.242,0,0,1,.444,1.7v.442a33.5,33.5,0,0,1-.444,4.725l.444.887-.444,2.584v.368q.515,5.613,4.283,5.612h9.894q5.167-.441,5.169-4.282v-41.923a5.187,5.187,0,0,0,2.215.849.837.837,0,0,1-.517.243v1.7q4.281,11.592,8.565,26.655,3.248,16.762,7.752,16.76h9.893l3.028-.885q1.7-2.437,13.29-42.9a.392.392,0,0,1-.444-.443c.422,0,.844-.554,1.266-1.625.143.032.286.059.433.078v.218a1.134,1.134,0,0,0,.667,1.1q.082.468.191.92a2.489,2.489,0,0,0-.858,2.264,113.62,113.62,0,0,1,1.328,13.807,15.747,15.747,0,0,0-.885,3.839,71.554,71.554,0,0,1,.443,7.753v5.167l-.443,4.283q0,6.423,4.725,6.423h10.337q4.724,0,4.725-5.612V2631.168Q575.453,2627.623,570.285,2626.442Z" transform="translate(-75.187 -2625.999)" fill="#4c4948"/><path d="M433.112,2626.442h-6.867a11.157,11.157,0,0,0-4.725.813q-2.365,0-8.566,22.371-4.726,18.682-6.941,24.513-7.9,29.61-9.819,29.609c0,.492-23.258-72.137-23.258-72.137q0-5.611-11.961-5.612-8.2,1.477-8.2,5.981.885,2.214.885,9.894v2.584a35.9,35.9,0,0,1-.443,5.612,12.134,12.134,0,0,1,.443,3.027q0,4.135-.443,9.008.443,5.834.443,8.122,0,2.142-.443,6.5l.443,5.981q-.443,8.417-.443,11.149l.443,1.772a3.973,3.973,0,0,0-.443,2.142v1.255l.443,3.027a.391.391,0,0,0-.443.443,2.936,2.936,0,0,0,.443,1.256l-.443,2.14.443,5.169q0,1.994-.443,9.894l.443,5.981-.443.885a3.241,3.241,0,0,1,.443,1.7v.442a33.465,33.465,0,0,1-.443,4.725l.443.887-.443,2.584v.368q.516,5.613,4.282,5.612H367.4q5.165-.441,5.167-4.282v-41.923a5.187,5.187,0,0,0,2.215.849.834.834,0,0,1-.516.243v1.7q4.281,11.592,8.564,26.655,3.248,16.762,7.753,16.76h9.893l3.027-.885q1.7-2.437,13.29-42.9a.391.391,0,0,1-.443-.443c.422,0,.844-.554,1.265-1.625.143.032.287.059.433.078v.218a1.135,1.135,0,0,0,.668,1.1q.083.468.19.92a2.489,2.489,0,0,0-.858,2.264,113.552,113.552,0,0,1,1.329,13.807,15.621,15.621,0,0,0-.885,3.839,71.9,71.9,0,0,1,.443,7.753v5.167l-.443,4.283q0,6.423,4.725,6.423h10.338q4.724,0,4.725-5.612V2631.168Q438.281,2627.623,433.112,2626.442Z" transform="translate(-126.582 -2625.999)" fill="#f6b42c"/><path d="M361.655,2626.442h-6.867a11.158,11.158,0,0,0-4.725.813q-2.365,0-8.566,22.371-4.726,18.682-6.941,24.513-7.9,29.61-9.819,29.609c0,.492-23.258-72.137-23.258-72.137q0-5.611-11.961-5.612-8.2,1.477-8.2,5.981.885,2.214.885,9.894v2.584a35.9,35.9,0,0,1-.443,5.612,12.134,12.134,0,0,1,.443,3.027q0,4.135-.443,9.008.443,5.834.443,8.122,0,2.142-.443,6.5l.443,5.981q-.443,8.417-.443,11.149l.443,1.772a3.973,3.973,0,0,0-.443,2.142v1.255l.443,3.027a.391.391,0,0,0-.443.443,2.936,2.936,0,0,0,.443,1.256l-.443,2.14.443,5.169q0,1.994-.443,9.894l.443,5.981-.443.885a3.241,3.241,0,0,1,.443,1.7v.442a33.465,33.465,0,0,1-.443,4.725l.443.887-.443,2.584v.368q.516,5.613,4.282,5.612h9.895q5.165-.441,5.167-4.282v-41.923a5.187,5.187,0,0,0,2.215.849.834.834,0,0,1-.516.243v1.7q4.281,11.592,8.564,26.655,3.248,16.762,7.753,16.76h9.893l3.027-.885q1.7-2.437,13.29-42.9a.391.391,0,0,1-.443-.443c.422,0,.844-.554,1.265-1.625.143.032.287.059.433.078v.218a1.135,1.135,0,0,0,.668,1.1q.083.468.19.92a2.489,2.489,0,0,0-.858,2.264,113.551,113.551,0,0,1,1.329,13.807,15.666,15.666,0,0,0-.887,3.839,71.566,71.566,0,0,1,.444,7.753v5.167l-.444,4.283q0,6.423,4.726,6.423H362.1q4.724,0,4.725-5.612V2631.168Q366.824,2627.623,361.655,2626.442Z" transform="translate(-153.355 -2625.999)" fill="#4c4948"/></svg>