<svg xmlns="http://www.w3.org/2000/svg" width="424.309" height="118.137" viewBox="0 0 424.309 118.137"><path d="M885.318,1982.5q13.069,2.435,17.13,6.866,8.194,7.679,8.2,20.6v9.008q-.887,4.726-4.282,4.725H895.137q-3.84-.516-3.84-4.725v-1.255a7.137,7.137,0,0,1,.887-3.471q-.815-12.4-8.2-12.4-5.98,1.107-5.98,5.537v66.6q.736,6.866,5.98,6.868,7.753-1.033,7.753-5.981V2068a22.022,22.022,0,0,0-.444-3.914q1.182-5.168,6.424-5.169h7.31q5.609.592,5.611,4.356v8.566q0,22.078-21.929,27.91a36.776,36.776,0,0,1-5.169.443q-16.467,0-24.07-18.459-.812-2.214-.812-7.753v-4.725a4.213,4.213,0,0,0-.443-2.142l.443-2.584v-5.167q0-3.47-.443-8.123a3.39,3.39,0,0,0,.443-1.328l-.443-.812a21.991,21.991,0,0,0,.443-3.913v-1.255q0-1.328-.443-1.329l.443-2.14v-9.9q0-4.5-.443-9.451a26.147,26.147,0,0,0,.443-5.095q0-1.474-.443-7.309,4.06-17.647,7.753-17.646Q874.537,1982.5,885.318,1982.5Z" transform="translate(-858.22 -1982.054)" fill="#e40038"/><path d="M930.982,1982.5q18.9,0,25.03,19.419a58.1,58.1,0,0,1,.887,10.779v56.042q0,21.486-15.136,28.869a31.943,31.943,0,0,1-12.035,2.585q-9.524,0-18.164-7.753-7.31-9.376-7.309-17.277.443-11,.443-12.922,0-1.4-.443-7.309a23.819,23.819,0,0,1,.443-2.584q-.443-3.837-.443-4.725.443-10.483.443-13.365l-.443-.887a3.228,3.228,0,0,0,.443-1.7V2029.9a19.466,19.466,0,0,0-.443-5.169,56.235,56.235,0,0,0,.443-6.424v-11.665q0-6.866,6.866-16.392,9.6-7.753,17.277-7.752Zm-7.309,27.17v63.351q1.843,8.2,6.866,8.2h.443q2.8,0,6.054-5.168.443-11.96.444-19.861a22.594,22.594,0,0,0-.444-4.282,26.6,26.6,0,0,0,.444-5.169v-.442q0-3.471-.444-8.2a9.528,9.528,0,0,0,.887-3.027,18.322,18.322,0,0,1-.887-5.168q0-3.912.444-14.25,0-.295-.444-2.584a26.592,26.592,0,0,0,.444-5.169v-.368q0-4.209-7.385-6.056Q923.672,2001.473,923.673,2009.668Z" transform="translate(-840.972 -1982.054)" fill="#4c4948"/><path d="M956.491,1982.175q5.388.443,6.054.444.295,0,2.584-.444,7.456,0,8.638,6.866l15.062,44.449h.443l.887-.443a2.931,2.931,0,0,1-.443-1.255,25.907,25.907,0,0,1,.443-2.659l-.443-.811a15.04,15.04,0,0,0,.812-5.611v-1.329q0-8.566-.37-11.593.369-4.8.37-12.552v-1.7q0-3.47-.37-8.2,1.623-5.168,5.169-5.169h8.638a6.068,6.068,0,0,1,5.537,3.027V2096.03q-.813,4.283-4.282,4.282h-10.78q-4.8,0-7.752-15.949-3.916-8.638-10.78-30.2-1.33,0-3.471-7.309-.813,0-.811-1.7h-.444v48.656a3.373,3.373,0,0,0,.444,1.772q-1.4,4.726-4.8,4.726H955.236q-1.33-.223-3.471-3.914.443-4.281.444-6.424V2073.14l.443-2.584q-.443,0-.887-14.25l.444-.812a2.988,2.988,0,0,0-.444-1.329q.443-7.233.444-11.223,0-6.349-.444-12.034l.887-8.64-.887-3.469a50.915,50.915,0,0,0,.444-5.981V2008.9a3.242,3.242,0,0,0-.444-1.7,3.4,3.4,0,0,0,.444-1.328q0-6.275-.887-17.2Q952.724,1982.176,956.491,1982.175Z" transform="translate(-823.337 -1982.175)" fill="#4c4948"/><path d="M1029.218,1982.5q13.069,2.435,17.13,6.866,8.195,7.679,8.2,20.6v9.008q-.887,4.726-4.283,4.725h-11.223q-3.839-.516-3.839-4.725v-1.255a7.136,7.136,0,0,1,.887-3.471q-.814-12.4-8.2-12.4-5.98,1.107-5.981,5.537v66.6q.738,6.866,5.981,6.868,7.753-1.033,7.753-5.981V2068a22.026,22.026,0,0,0-.444-3.914q1.182-5.168,6.424-5.169h7.31q5.609.592,5.611,4.356v8.566q0,22.078-21.93,27.91a36.743,36.743,0,0,1-5.167.443q-16.467,0-24.071-18.459-.815-2.214-.812-7.753v-4.725a4.213,4.213,0,0,0-.443-2.142l.443-2.584v-5.167q0-3.47-.443-8.123a3.39,3.39,0,0,0,.443-1.328l-.443-.812a21.991,21.991,0,0,0,.443-3.913v-1.255q0-1.328-.443-1.329l.443-2.14v-9.9q0-4.5-.443-9.451a26.147,26.147,0,0,0,.443-5.095q0-1.474-.443-7.309,4.06-17.647,7.753-17.646Q1018.437,1982.5,1029.218,1982.5Z" transform="translate(-804.305 -1982.054)" fill="#4c4948"/><path d="M1053.027,1982.5h7.309q3.027,0,3.47.442a33.493,33.493,0,0,1,4.726-.442h15.579q5.611,0,5.612,3.839v9.524q-.592,5.613-4.356,5.611H1067.72v29.314q16.391.958,16.391,3.838v11.667q0,4.5-6.941,4.725h-9.451v28.944a11.2,11.2,0,0,0,4.282,1.255h6.5a50.929,50.929,0,0,0,5.98-.442q5.242.886,5.243,4.356v8.2q-.3,6.866-4.8,6.867h-32.341q-3.4,0-4.282-4.726v-3.912a36.847,36.847,0,0,1,.443-5.611,12.853,12.853,0,0,1-.443-3.4,23.858,23.858,0,0,1,.443-2.584l-.443-.887.443-1.7q0-.959-.443-4.8.443-5.316.443-5.611a21.093,21.093,0,0,0-.443-3.4q.443-5.019.443-9.525v-2.14a15.037,15.037,0,0,0-.443-3.914,21.814,21.814,0,0,0,.443-4.282v-3.027a37.99,37.99,0,0,0-.443-6.055,27.992,27.992,0,0,0,.443-5.611v-.811a3.64,3.64,0,0,0-.443-1.772,2.94,2.94,0,0,0,.443-1.257,26.615,26.615,0,0,0-.443-5.167q.443-6.054.443-11.667,0-2.14-.443-6.422a17.277,17.277,0,0,0,.887-3.914q-.371-2.584-.887-2.584l.443-2.584-.443-6.054Q1050.147,1982.5,1053.027,1982.5Z" transform="translate(-787.002 -1982.054)" fill="#4c4948"/><path d="M1093.31,1982.175h1.329a57.309,57.309,0,0,1,9.008.886,6.8,6.8,0,0,1,2.584-.886q32.782,0,32.782,28.057v22.815q0,20.971-19.344,28.057a43.016,43.016,0,0,1-7.826.812h-5.981v31.9a3.9,3.9,0,0,0,.37,1.772q-1.33,4.726-4.726,4.726h-10.78q-2.584,0-3.838-3.027-.443-12.7-.444-16.391.443-5.316.444-5.612a2.939,2.939,0,0,1-.444-1.255l.444-.887a4.2,4.2,0,0,0-.444-2.14q.443-5.611.444-9.083v-4.725q0-10.926-.887-13.364a22,22,0,0,0,.443-3.914v-4.282a109.525,109.525,0,0,1,.444-11.223,97.005,97.005,0,0,1-.444-11.223,14.692,14.692,0,0,1,.444-3.839,36.871,36.871,0,0,1-.444-5.611v-6.866q0-2.51.444-6.941a4.2,4.2,0,0,1-.444-2.142Q1086.444,1983.578,1093.31,1982.175Zm12.552,20.231v39.28l3.839,1.255a3.866,3.866,0,0,0,1.329-.368l2.142.368q6.052,0,6.054-9.451,0-16.906.812-24.586-2.365-7.31-7.753-7.311h-5.611C1106.133,2001.694,1105.862,2001.964,1105.862,2002.406Z" transform="translate(-772.877 -1982.175)" fill="#4c4948"/><path d="M1133.915,1982.175l4.284.444h5.167q3.47,0,8.123-.444a3.394,3.394,0,0,0,1.328.444,3.243,3.243,0,0,0,1.7-.444q7.677.443,12.478.444h4.725a33.538,33.538,0,0,0,4.726-.444q4.724,1.258,4.725,4.283v11.149q0,4.357-6.866,4.356h-9.451v93.622q-.885,4.283-4.282,4.283h-12.035a6.761,6.761,0,0,1-3.027-3.839,22.016,22.016,0,0,1,.443-3.914q-.443-7.456-.443-9.451,0-5.316.443-9.82-.443-7.974-.443-13.363t.443-20.157q-.443-5.168-.443-7.753l.443-4.282a3.242,3.242,0,0,0-.443-1.7,52.711,52.711,0,0,0,.443-6.054V2007.5a34.44,34.44,0,0,0-1.329-5.537h-10.262a4.983,4.983,0,0,1-5.169-3.471l.443-.885a2.934,2.934,0,0,0-.443-1.255l.443-2.141a59.44,59.44,0,0,0-.885-7.309Q1131.183,1982.177,1133.915,1982.175Z" transform="translate(-756.861 -1982.175)" fill="#4c4948"/></svg>