<svg xmlns="http://www.w3.org/2000/svg" width="68.786" height="68.735" viewBox="0 0 68.786 68.735"><g transform="translate(0 0)"><rect width="9.254" height="25.911" transform="translate(16.811 24.163)" fill="#4c4948"/><rect width="9.254" height="18.508" transform="translate(42.721 31.567)" fill="#4c4948"/><rect width="9.254" height="31.463" transform="translate(29.766 18.612)" fill="#4c4948"/><path d="M282.6,6643.171l8.258-1.232a34.3,34.3,0,0,0-8.111-16.081l-5.9,5.9A25.951,25.951,0,0,1,282.6,6643.171Z" transform="translate(-222.76 -6614.49)" fill="#4c4948"/><path d="M289.839,6640.217l-8.258,1.229c.051.664.085,1.333.085,2.009a26.182,26.182,0,0,1-.686,5.933l7.975,2.473a34.389,34.389,0,0,0,1.039-8.405C289.994,6642.362,289.936,6641.282,289.839,6640.217Z" transform="translate(-221.208 -6609.11)" fill="#4c4948"/><path d="M290.323,6670.361a26.064,26.064,0,1,1-20.284-44.421v-8.352a34.389,34.389,0,1,0,34.112,46.286l-7.972-2.473A26.123,26.123,0,0,1,290.323,6670.361Z" transform="translate(-237.5 -6617.588)" fill="#4c4948"/><path d="M284.991,6626.343a34.293,34.293,0,0,0-21.128-8.754v8.351a25.9,25.9,0,0,1,15.224,6.309Z" transform="translate(-227.622 -6617.588)" fill="#4c4948"/></g></svg>