<svg xmlns="http://www.w3.org/2000/svg" width="68.734" height="68.735" viewBox="0 0 68.734 68.735"><g transform="translate(0 0)"><path d="M271.887,7122.3a34.367,34.367,0,1,0,34.366,34.368A34.368,34.368,0,0,0,271.887,7122.3Zm2.532,48.607c-.8.354-2.414.977-2.414.977a.314.314,0,0,1-.118.023.3.3,0,0,1-.117-.023s-1.614-.623-2.415-.977c-12.658-5.6-14.777-14.181-14.777-18.677a8.654,8.654,0,1,1,17.309,0,8.653,8.653,0,1,1,17.306,0C289.193,7156.73,287.077,7165.311,274.419,7170.911Z" transform="translate(-237.519 -7122.304)" fill="#4c4948"/></g></svg>