<svg xmlns="http://www.w3.org/2000/svg" width="68.735" height="68.735" viewBox="0 0 68.735 68.735"><g transform="translate(0 0)"><path d="M271.887,6783.828a34.367,34.367,0,1,0,34.368,34.368A34.407,34.407,0,0,0,271.887,6783.828Zm0,60.143a25.775,25.775,0,1,1,25.776-25.775A25.8,25.8,0,0,1,271.887,6843.97Z" transform="translate(-237.519 -6783.828)" fill="#4c4948"/><path d="M282.864,6802.555a2.755,2.755,0,0,0-1.982,4.672c-1.878,3.887-5.462,5.241-8.241,4.015-2.476-1.093-3.389-4.223-3.7-6.65a3.171,3.171,0,1,0-2.95,0c-.308,2.427-1.222,5.557-3.7,6.65-2.78,1.226-6.365-.127-8.241-4.015a2.757,2.757,0,1,0-2.34.82l1.922,11.637H281.3l1.923-11.637a2.758,2.758,0,0,0-.357-5.492Z" transform="translate(-233.1 -6778.287)" fill="#4c4948"/><path d="M1.494,0H26.735a1.494,1.494,0,0,1,1.494,1.494v1.29a1.492,1.492,0,0,1-1.492,1.492H1.492A1.492,1.492,0,0,1,0,2.784V1.494A1.494,1.494,0,0,1,1.494,0Z" transform="translate(20.252 44.134)" fill="#4c4948"/></g></svg>