<svg xmlns="http://www.w3.org/2000/svg" width="73.197" height="68.736" viewBox="0 0 73.197 68.736"><g transform="translate(0 0)"><path d="M245.08,6981.336c5.624,6.708,8.534,7.231,12.678,7.3,3.338.061,5.785-.361,9.3,3.809l1.948,2.3,4.935-5.845-1.113-1.321c-3.523-4.172-2.693-6.519-2.194-9.819.619-4.093.594-7.049-5.075-13.721,0,0-4.5-5.331-8.182-9.691-3.071-3.633-7.965.279-4.824,4l8.665,10.257a1.828,1.828,0,0,1-.085,2.574l-.352.3a1.824,1.824,0,0,1-2.547-.351l-8.71-10.313c-1.758-2.077-3.545-1.635-4.748-.611s-1.948,2.705-.191,4.785l8.7,10.313a1.824,1.824,0,0,1-.081,2.573l-.352.3a1.822,1.822,0,0,1-2.547-.353l-8.661-10.256c-3.147-3.725-7.823.448-4.752,4.083Z" transform="translate(-235.896 -6952.904)" fill="#4c4948"/><path d="M286,7004.058l-14.546-17.228-4.934,5.849,13.715,16.25Z" transform="translate(-224.42 -6940.192)" fill="#4c4948"/><path d="M249.352,7015.033l.1-.059,5.739,4.849,21.454-25.41c7.653-8.789,7.779,1.75,17.053-9.884,3.992-4.728,7.557-13.609,9.546-18.45,3.1-7.532-3.4-10.83-7.326-6.185-1.908,2.258-10.981,13.005-21.845,25.869-10.981,13.007-23.745,28.12-24.651,29.189A1.026,1.026,0,0,1,249.352,7015.033Z" transform="translate(-230.854 -6951.088)" fill="#4c4948"/></g></svg>