<svg xmlns="http://www.w3.org/2000/svg" width="79.67" height="96.229" viewBox="0 0 79.67 96.229"><g transform="translate(0 0)"><path d="M313.007,6501.17c-.062-.432-.335-2.288-.705-4.415-.21-1.214-.451-2.514-.7-3.7-.126-.592-.256-1.154-.388-1.668s-.265-.974-.411-1.384a249.239,249.239,0,0,0-12.492-27.793c-4.116-8.019-7.454-13.864-7.608-14.132a7.075,7.075,0,0,0-6.358-3.976,6.7,6.7,0,0,0-.866.054l-21.818,2.666a6.165,6.165,0,0,0-4.644,3.128h0c-.006.01-.646,1.059-1.427,2.438-.389.692-.815,1.466-1.215,2.24s-.777,1.548-1.071,2.256a7.9,7.9,0,0,0-.634,3.047,6.658,6.658,0,0,0,.746,3.1,6.825,6.825,0,0,0,2.165,2.439,7.7,7.7,0,0,0,1.217.666,26.21,26.21,0,0,0,2.851,1.055c1.626.511,3.493.995,5.264,1.356.887.179,1.747.328,2.545.434a16.83,16.83,0,0,0,2.2.17,6.911,6.911,0,0,0,.932-.055,3.541,3.541,0,0,0,.947-.252h0a6.129,6.129,0,0,0,1.556-1.022,10.572,10.572,0,0,0,1.956-2.423,21.484,21.484,0,0,0,1.742-3.727c.1-.267.181-.517.254-.737a13.3,13.3,0,0,0,1.651-.356c.269-.077.555-.17.847-.274.154.628.342,1.454.529,2.417a41.523,41.523,0,0,1,.828,7.694c0,.463-.011.922-.036,1.374-.051.908-.074,1.825-.074,2.745a82.138,82.138,0,0,0,.819,10.773q.091.671.184,1.333a23.459,23.459,0,0,0-4-2.571,23.128,23.128,0,0,0-10.393-2.524,20.64,20.64,0,0,0-10.122,2.615,22.448,22.448,0,0,0-5.546,4.408,43.341,43.341,0,0,0-7.646-4.325,29.088,29.088,0,0,0-10.54-2.616v3.22a21.936,21.936,0,0,1,5.119.85,36.036,36.036,0,0,1,7.788,3.327c1.109.625,2.088,1.246,2.892,1.8.121.082.234.162.346.244q-.565.778-1.1,1.627l2.73,1.706a21.035,21.035,0,0,1,7.521-7.431,17.4,17.4,0,0,1,8.553-2.207,19.9,19.9,0,0,1,8.938,2.179,19.3,19.3,0,0,1,6.28,5.009c.177,1.087.352,2.138.513,3.141l3.178-.514c-.2-1.243-.418-2.548-.639-3.9l.025-.016a.424.424,0,0,0-.034-.046c-.3-1.848-.6-3.773-.865-5.741a79.365,79.365,0,0,1-.79-10.346c0-.867.022-1.725.069-2.568q.041-.773.041-1.551A44.98,44.98,0,0,0,283.2,6462c-.276-1.4-.548-2.513-.724-3.182a12.413,12.413,0,0,0,1.765-1.464l-2.277-2.276a9.164,9.164,0,0,1-2.127,1.583,9.988,9.988,0,0,1-2.873,1.024,8.343,8.343,0,0,1-.894.125c-.1.008-.179.011-.223.014h-1.284l-.313,1.2a21.754,21.754,0,0,1-1.192,3.24,12.7,12.7,0,0,1-1.353,2.317,6,6,0,0,1-.767.839,3.006,3.006,0,0,1-.7.468c-.025,0-.082.018-.162.024-.107.009-.257.019-.434.019-.34,0-.782-.031-1.283-.083-.88-.1-1.942-.275-3.05-.508a50.239,50.239,0,0,1-4.915-1.29c-.74-.238-1.4-.478-1.929-.7-.263-.109-.491-.214-.672-.3a3.713,3.713,0,0,1-.377-.218,3.64,3.64,0,0,1-1.158-1.29,3.478,3.478,0,0,1-.382-1.615,4.7,4.7,0,0,1,.386-1.81c.241-.579.583-1.29.96-2.014.562-1.088,1.2-2.214,1.691-3.064.246-.425.456-.778.6-1.028.076-.125.135-.222.173-.288.019-.032.034-.059.047-.075l.014-.023.023-.037.021-.04a2.955,2.955,0,0,1,2.244-1.535l21.823-2.667h.005a3.863,3.863,0,0,1,3.963,2.2l.026.059.034.056s.011.023.037.067c.392.687,3.809,6.706,7.9,14.719a242.234,242.234,0,0,1,11.931,26.636c.093.265.209.651.324,1.1.2.793.421,1.8.626,2.849.305,1.572.584,3.249.789,4.525.1.638.183,1.177.241,1.557.027.188.049.338.065.44s.023.154.023.154l.021.14.041.131a2.073,2.073,0,0,1,.1.648,3.294,3.294,0,0,1-.227,1.153,4.045,4.045,0,0,1-1.181,1.661,3.881,3.881,0,0,1-2.065.878l-11.773,1.442-.324.224-.005,0a73.934,73.934,0,0,1-6.883,4.072,60.207,60.207,0,0,1-6.46,2.939,31.679,31.679,0,0,1-6.769,1.835c-1.371.187-3.25.338-5.354.439s-4.449.156-6.779.156c-3.147,0-6.278-.1-8.784-.3-1.25-.1-2.347-.228-3.188-.373-.421-.072-.775-.148-1.043-.222a2.9,2.9,0,0,1-.477-.169l-2.983-1.607.641,3.33a4.082,4.082,0,0,1,.07.776,9.937,9.937,0,0,1-1.14,4.09,32.929,32.929,0,0,1-5.646,7.8,54.448,54.448,0,0,1-6.08,5.54v4.023a55.811,55.811,0,0,0,10.922-10.235,30.929,30.929,0,0,0,3.7-5.738,14.245,14.245,0,0,0,1.388-4.437c.4.07.825.136,1.285.195,1.471.187,3.243.321,5.183.409s4.04.131,6.149.131c2.378,0,4.766-.055,6.933-.158s4.112-.259,5.635-.465a35.018,35.018,0,0,0,7.594-2.062,69.7,69.7,0,0,0,9.712-4.715c1.883-1.091,3.266-1.988,3.868-2.39l10.963-1.344.017,0a7.131,7.131,0,0,0,5.365-3.511,6.787,6.787,0,0,0,.951-3.377A5.331,5.331,0,0,0,313.007,6501.17Z" transform="translate(-233.542 -6444.106)" fill="#4c4948"/></g></svg>