<svg xmlns="http://www.w3.org/2000/svg" width="693.47" height="118.135" viewBox="0 0 693.47 118.135"><path d="M456.1,3281.477h1.329a57.375,57.375,0,0,1,9.007.885,6.826,6.826,0,0,1,2.584-.885q32.784,0,32.783,28.057v22.815q0,20.971-19.344,28.057a43.165,43.165,0,0,1-7.827.813h-5.98v31.9a3.921,3.921,0,0,0,.368,1.772q-1.328,4.727-4.725,4.725h-10.78q-2.586,0-3.839-3.027-.443-12.7-.443-16.391.443-5.317.443-5.612a2.931,2.931,0,0,1-.443-1.255l.443-.885a4.21,4.21,0,0,0-.443-2.142q.443-5.611.443-9.081v-4.726q0-10.927-.885-13.365a22.1,22.1,0,0,0,.443-3.912v-4.282a109.623,109.623,0,0,1,.443-11.225,97.08,97.08,0,0,1-.443-11.223,14.7,14.7,0,0,1,.443-3.839,36.84,36.84,0,0,1-.443-5.612v-6.866q0-2.509.443-6.941a4.2,4.2,0,0,1-.443-2.14Q449.233,3282.88,456.1,3281.477Zm12.552,20.231v39.28l3.839,1.254a3.868,3.868,0,0,0,1.329-.369l2.14.369q6.054,0,6.054-9.451,0-16.906.812-24.588-2.363-7.309-7.752-7.309h-5.611C468.921,3300.995,468.651,3301.264,468.651,3301.708Z" transform="translate(-448.79 -3281.477)" fill="#4c4948"/><path d="M500.339,3281.477q5.167.443,5.611.885a20.794,20.794,0,0,1,3.839-.443h1.772q2.437,0,2.953.443a21.984,21.984,0,0,1,3.914-.443h6.867a51.387,51.387,0,0,0,6.055-.443q4.724,1.771,4.725,3.027v12.035q-.518,4.358-4.282,4.357H514.959c-.543.1-.812.368-.812.812v27.613q0,.517,4.282,2.142l5.612-.813q6.867,0,6.866,5.169v8.638q0,5.982-5.98,5.981h-10.78v42.677a3.922,3.922,0,0,0,.368,1.772q-1.328,4.727-4.725,4.725H499.01q-3.839,0-3.839-7.309-.443-.295-.443-3.913,0-2.73.443-11.223a37.721,37.721,0,0,0-.443-5.169q.443-6.423.443-13.363v-2.142a64.742,64.742,0,0,0-.443-8.639,63.715,63.715,0,0,0,.443-8.638v-2.954q0-4.355-.443-10.779a13.7,13.7,0,0,0,.443-3.471l-.443-.885.885-4.283q-.441-3.691-.885-14.25a36.5,36.5,0,0,0,.443-5.169,10.3,10.3,0,0,0-.885-3.027,33.465,33.465,0,0,0,.443-4.725v-2.584Q496.056,3281.477,500.339,3281.477Z" transform="translate(-431.744 -3281.477)" fill="#4c4948"/><path d="M557.94,3281.8q13.069,2.437,17.13,6.866,8.2,7.681,8.2,20.6v9.007q-.887,4.726-4.282,4.726H567.76q-3.841-.516-3.839-4.726v-1.255a7.148,7.148,0,0,1,.885-3.469q-.812-12.405-8.2-12.405-5.98,1.107-5.98,5.539v66.6q.736,6.866,5.98,6.866,7.753-1.033,7.753-5.981V3367.3a21.982,21.982,0,0,0-.443-3.913q1.179-5.167,6.424-5.169h7.309q5.611.592,5.611,4.357v8.564q0,22.078-21.929,27.91a36.584,36.584,0,0,1-5.169.442q-16.465,0-24.07-18.458-.813-2.216-.811-7.753v-4.726a4.2,4.2,0,0,0-.444-2.14l.444-2.585v-5.169q0-3.468-.444-8.121a3.4,3.4,0,0,0,.444-1.329l-.444-.812a21.977,21.977,0,0,0,.444-3.913v-1.255q0-1.33-.444-1.329l.444-2.142v-9.893q0-4.5-.444-9.451a26.14,26.14,0,0,0,.444-5.094q0-1.476-.444-7.31,4.06-17.644,7.753-17.646Q547.159,3281.8,557.94,3281.8Z" transform="translate(-418.047 -3281.357)" fill="#4c4948"/><path d="M607.506,3281.8q7.161.443,11.149.442,2.509,0,9.008-.442,10.263,1.4,15.949,5.981,9.007,8.345,9.007,21.929v12.035q0,10.927-5.611,18.458a33.064,33.064,0,0,1,5.611,18.459V3370.7q0,20.527-18.458,27.54a33.623,33.623,0,0,1-9.083,1.255H603.224q-1.4-.443-3.027-4.281.443-6.423.443-8.639,0-.515-.443-4.282a.392.392,0,0,1,.443-.444,21.014,21.014,0,0,1-.443-3.4q0-7.6.443-15.874-.443-5.316-.443-10.337l.443-2.141q-.664-9.82-.887-10.78a20.824,20.824,0,0,0,.444-3.84v-8.121a14.988,14.988,0,0,1,.812-5.612L600.2,3299a28.67,28.67,0,0,0,.443-5.612q0-1.033-.443-6.423Q600.2,3282.687,607.506,3281.8Zm12.035,20.156V3329.5q.072,1.4,7.679,2.142,6.052,0,6.054-12.035V3308.01q0-6.126-8.638-6.866h-4.282C619.811,3301.193,619.542,3301.465,619.542,3301.956Zm0,48.584v28.8a29.546,29.546,0,0,0,3.4.812h5.611q4.281-1.771,4.282-10.263a37.94,37.94,0,0,0,.443-6.054q-.443-3.765-.443-4.726l.443-2.583q-2.215-5.982-6.867-5.981Z" transform="translate(-392.228 -3281.357)" fill="#009472"/><path d="M677.942,3281.477q9.45,0,9.451,9.008,22.373,101.744,22.373,104.845,0,3.839-5.169,4.282H694.259q-3.986,0-5.095-8.564-1.328-.443-1.328-2.585H664.652q-1.476,11.149-6.054,11.149H647.449q-2.511,0-4.282-3.839l5.611-23.626q0-2.51,5.095-24.513,0-3.248,2.215-11.15l10.706-49.026q1.623-5.093,5.169-5.094Q671.962,3281.919,677.942,3281.477Zm-2.14,53.678-6.866,33.52h.443l3.839.887h.443q2.584,0,9.893-.887v-4.282q-4.283-22.593-5.98-25.768-.443-3.47-1.329-3.47Z" transform="translate(-375.962 -3281.477)" fill="#4c4948"/><path d="M705.362,3281.8h.885a50.891,50.891,0,0,1,5.981.442,2.965,2.965,0,0,1,1.329-.442q4.724.738,4.725,4.726v92.81a15.976,15.976,0,0,1,3.4,1.255,3.4,3.4,0,0,0,1.329-.443q4.281.443,6.424.443l6.867-.443q3.838.887,3.839,4.282v10.337q-.666,4.726-4.726,4.725H703.22q-4.283,0-4.282-7.309a55.489,55.489,0,0,1,.443-7.309l-.443-3.84q0-.369.443-10.337,0-3.618-.443-10.707.443-6.054.443-10.337,0-2.507-.443-6.866a108.609,108.609,0,0,0,.443-11.148q0-2.51-.443-3.027a20.83,20.83,0,0,0,.443-3.84v-.443q0-7.679-.443-12.479a84.811,84.811,0,0,0,.443-9.007,20.051,20.051,0,0,0-.885-6.424,22.115,22.115,0,0,0,.443-3.914v-5.537Q698.938,3282.759,705.362,3281.8Z" transform="translate(-355.232 -3281.357)" fill="#4c4948"/><path d="M742.357,3281.8h.887a50.872,50.872,0,0,1,5.98.442,2.97,2.97,0,0,1,1.329-.442q4.724.738,4.726,4.726v92.81a15.952,15.952,0,0,1,3.4,1.255,3.392,3.392,0,0,0,1.329-.443q4.281.443,6.424.443l6.867-.443q3.839.887,3.839,4.282v10.337q-.664,4.726-4.725,4.725H740.216q-4.283,0-4.282-7.309a55.479,55.479,0,0,1,.443-7.309l-.443-3.84q0-.369.443-10.337,0-3.618-.443-10.707.441-6.054.443-10.337,0-2.507-.443-6.866a109,109,0,0,0,.443-11.148q0-2.51-.443-3.027a20.947,20.947,0,0,0,.443-3.84v-.443q0-7.679-.443-12.479a85.169,85.169,0,0,0,.443-9.007,20.014,20.014,0,0,0-.887-6.424,22.008,22.008,0,0,0,.444-3.914v-5.537Q735.934,3282.759,742.357,3281.8Z" transform="translate(-341.372 -3281.357)" fill="#4c4948"/><path d="M805.642,3281.477q9.45,0,9.451,9.008,22.373,101.744,22.373,104.845,0,3.839-5.169,4.282H821.959q-3.986,0-5.094-8.564-1.328-.443-1.329-2.585H792.351q-1.478,11.149-6.054,11.149h-11.15q-2.509,0-4.282-3.839l5.612-23.626q0-2.51,5.094-24.513,0-3.248,2.216-11.15l10.706-49.026q1.623-5.093,5.169-5.094Q799.662,3281.919,805.642,3281.477Zm-2.142,53.678-6.867,33.52h.444l3.839.887h.443q2.584,0,9.893-.887v-4.282q-4.283-22.593-5.98-25.768-.443-3.47-1.329-3.47Z" transform="translate(-328.117 -3281.477)" fill="#4c4948"/><path d="M831.31,3281.477q5.388.443,6.054.443.295,0,2.584-.443,7.456,0,8.638,6.866l15.062,44.448h.444l.885-.443a2.939,2.939,0,0,1-.443-1.255,25.818,25.818,0,0,1,.443-2.659l-.443-.813a15.039,15.039,0,0,0,.812-5.611v-1.329q0-8.563-.37-11.592.369-4.8.37-12.552v-1.7q0-3.468-.37-8.194,1.623-5.168,5.169-5.169h8.638a6.065,6.065,0,0,1,5.537,3.027v110.826q-.813,4.282-4.282,4.282H869.26q-4.8,0-7.752-15.947-3.916-8.64-10.78-30.2-1.33,0-3.471-7.309-.813,0-.811-1.7H846v48.658a3.376,3.376,0,0,0,.444,1.772q-1.4,4.727-4.8,4.725H830.055q-1.33-.221-3.471-3.912.443-4.283.444-6.424v-16.834l.443-2.584q-.443,0-.887-14.25l.444-.813a2.991,2.991,0,0,0-.444-1.329q.443-7.236.444-11.223,0-6.349-.444-12.035l.887-8.638-.887-3.471a50.922,50.922,0,0,0,.444-5.98V3308.2a3.236,3.236,0,0,0-.444-1.7,3.406,3.406,0,0,0,.444-1.329q0-6.275-.887-17.2Q827.543,3281.479,831.31,3281.477Z" transform="translate(-307.407 -3281.477)" fill="#4c4948"/><path d="M904.037,3281.8q13.069,2.437,17.13,6.866,8.194,7.681,8.2,20.6v9.007q-.887,4.726-4.283,4.726H913.856q-3.84-.516-3.84-4.726v-1.255a7.136,7.136,0,0,1,.887-3.469q-.815-12.405-8.2-12.405-5.98,1.107-5.981,5.539v66.6q.738,6.866,5.981,6.866,7.753-1.033,7.753-5.981V3367.3a21.994,21.994,0,0,0-.444-3.913q1.182-5.167,6.424-5.169h7.31q5.609.592,5.611,4.357v8.564q0,22.078-21.929,27.91a36.583,36.583,0,0,1-5.169.442q-16.467,0-24.07-18.458-.812-2.216-.812-7.753v-4.726a4.207,4.207,0,0,0-.443-2.14l.443-2.585v-5.169q0-3.468-.443-8.121a3.4,3.4,0,0,0,.443-1.329l-.443-.812a21.974,21.974,0,0,0,.443-3.913v-1.255q0-1.33-.443-1.329l.443-2.142v-9.893q0-4.5-.443-9.451a26.162,26.162,0,0,0,.443-5.094q0-1.476-.443-7.31,4.06-17.644,7.753-17.646Q893.256,3281.8,904.037,3281.8Z" transform="translate(-288.374 -3281.357)" fill="#4c4948"/><path d="M927.846,3281.8h7.309q3.027,0,3.47.442a33.475,33.475,0,0,1,4.726-.442H958.93q5.611,0,5.611,3.839v9.525q-.592,5.61-4.356,5.612H942.539v29.312q16.391.961,16.392,3.84v11.665q0,4.505-6.941,4.726h-9.451v28.944a11.2,11.2,0,0,0,4.282,1.255h6.5a50.966,50.966,0,0,0,5.98-.444q5.241.887,5.243,4.356v8.2q-.3,6.866-4.8,6.866H927.4q-3.4,0-4.282-4.725v-3.914a37.063,37.063,0,0,1,.443-5.612,12.9,12.9,0,0,1-.443-3.4,24.354,24.354,0,0,1,.443-2.583l-.443-.887.443-1.7q0-.959-.443-4.8.443-5.316.443-5.612a21.059,21.059,0,0,0-.443-3.4q.443-5.02.443-9.525V3351.2a15.027,15.027,0,0,0-.443-3.913,21.818,21.818,0,0,0,.443-4.283v-3.027a37.947,37.947,0,0,0-.443-6.054,27.985,27.985,0,0,0,.443-5.611v-.813a3.642,3.642,0,0,0-.443-1.771,2.931,2.931,0,0,0,.443-1.255,26.6,26.6,0,0,0-.443-5.169q.443-6.052.443-11.666,0-2.139-.443-6.423a17.25,17.25,0,0,0,.887-3.914q-.371-2.584-.887-2.584l.443-2.583-.443-6.055Q924.966,3281.8,927.846,3281.8Z" transform="translate(-271.072 -3281.357)" fill="#4c4948"/></svg>