<svg xmlns="http://www.w3.org/2000/svg" width="245.598" height="118.137" viewBox="0 0 245.598 118.137"><path d="M618.463,4067.682h1.329a57.345,57.345,0,0,1,9.008.887,6.808,6.808,0,0,1,2.584-.887q32.782,0,32.782,28.058v22.815q0,20.971-19.344,28.057a42.975,42.975,0,0,1-7.826.813h-5.981v31.9a3.9,3.9,0,0,0,.37,1.772q-1.33,4.726-4.726,4.727h-10.78q-2.586,0-3.839-3.029-.443-12.7-.443-16.39.443-5.316.443-5.611a2.945,2.945,0,0,1-.443-1.255l.443-.887a4.215,4.215,0,0,0-.443-2.142q.443-5.608.443-9.081V4142.7q0-10.923-.885-13.363a21.987,21.987,0,0,0,.443-3.914v-4.282a109.627,109.627,0,0,1,.443-11.223,97.1,97.1,0,0,1-.443-11.223,14.7,14.7,0,0,1,.443-3.839,36.872,36.872,0,0,1-.443-5.611v-6.866q0-2.51.443-6.941a4.209,4.209,0,0,1-.443-2.142Q611.6,4069.086,618.463,4067.682Zm12.552,20.231v39.28l3.839,1.255a3.908,3.908,0,0,0,1.329-.369l2.14.369q6.054,0,6.055-9.451,0-16.907.812-24.588-2.365-7.307-7.753-7.309h-5.612C631.285,4087.2,631.015,4087.471,631.015,4087.913Z" transform="translate(-611.154 -4067.682)" fill="#4c4948"/><path d="M663.7,4068h.887a51.01,51.01,0,0,1,5.98.444A2.981,2.981,0,0,1,671.9,4068q4.724.741,4.725,4.727v92.811a15.9,15.9,0,0,1,3.4,1.255,3.4,3.4,0,0,0,1.329-.445q4.281.445,6.424.445l6.867-.445q3.837.887,3.839,4.284v10.336q-.664,4.726-4.726,4.726H661.563q-4.283,0-4.282-7.311a55.731,55.731,0,0,1,.443-7.309l-.443-3.84q0-.368.443-10.337,0-3.617-.443-10.706.443-6.051.443-10.335,0-2.51-.443-6.867a108.624,108.624,0,0,0,.443-11.15q0-2.509-.443-3.027a20.8,20.8,0,0,0,.443-3.839v-.443q0-7.679-.443-12.478a84.8,84.8,0,0,0,.443-9.008,20.024,20.024,0,0,0-.885-6.424,21.962,21.962,0,0,0,.443-3.914v-5.537Q657.281,4068.964,663.7,4068Z" transform="translate(-594.037 -4067.561)" fill="#4c4948"/><path d="M726.99,4067.682q9.45,0,9.451,9.008,22.373,101.746,22.373,104.845,0,3.842-5.169,4.284H743.307q-3.986,0-5.095-8.565-1.328-.445-1.329-2.585H713.7q-1.478,11.152-6.054,11.151H696.5q-2.511,0-4.283-3.84l5.611-23.627q0-2.51,5.095-24.513,0-3.249,2.216-11.149l10.706-49.027q1.623-5.095,5.169-5.094Q721.01,4068.126,726.99,4067.682Zm-2.14,53.678-6.868,33.522h.444l3.839.884h.443q2.584,0,9.894-.884V4150.6q-4.283-22.6-5.98-25.77-.443-3.469-1.329-3.47Z" transform="translate(-580.783 -4067.682)" fill="#479fe8"/><path d="M752.658,4067.682q5.388.444,6.054.443.293,0,2.584-.443,7.456,0,8.638,6.867L785,4119h.443l.887-.443a2.937,2.937,0,0,1-.444-1.255,26.134,26.134,0,0,1,.444-2.658l-.444-.812a15,15,0,0,0,.812-5.611v-1.328q0-8.566-.368-11.593.367-4.8.368-12.552v-1.7q0-3.471-.368-8.2,1.623-5.167,5.167-5.169h8.64a6.068,6.068,0,0,1,5.537,3.027v110.826q-.814,4.285-4.282,4.284h-10.78q-4.8,0-7.753-15.949-3.914-8.638-10.779-30.2-1.33,0-3.471-7.309-.812,0-.812-1.7h-.443v48.657a3.372,3.372,0,0,0,.443,1.772q-1.4,4.726-4.8,4.727H751.4q-1.328-.223-3.47-3.914.443-4.281.443-6.424v-16.834l.444-2.584q-.443,0-.887-14.25l.443-.812a2.979,2.979,0,0,0-.443-1.329q.443-7.234.443-11.223,0-6.349-.443-12.036l.887-8.638-.887-3.47a50.866,50.866,0,0,0,.443-5.981v-3.914a3.238,3.238,0,0,0-.443-1.7,3.4,3.4,0,0,0,.443-1.329q0-6.275-.885-17.2Q748.889,4067.684,752.658,4067.682Z" transform="translate(-560.073 -4067.682)" fill="#4c4948"/></svg>