<svg id="Layer_1" data-name="Layer 1" xmlns="http://www.w3.org/2000/svg" viewBox="0 0 540.43 374.93"><defs><style>.cls-1{fill:#bf9456;}</style></defs><path class="cls-1" d="M280,295.54H116a3,3,0,0,0-3,3V427a3,3,0,0,0,3,3h42.37a3,3,0,0,1,3,3v20.28a3,3,0,0,1-3,3h-9.49a3,3,0,0,0,0,6h98.47a3,3,0,0,0,0-6h-9.61a3,3,0,0,1-3-3V433a3,3,0,0,1,3-3H280a3,3,0,0,0,3-3V298.53A3,3,0,0,0,280,295.54ZM199.8,419.81a3.15,3.15,0,1,1,3.14-3.14A3.15,3.15,0,0,1,199.8,419.81Zm79.06-17.52a4,4,0,0,1-4,4H121.33a4,4,0,0,1-4-4v-98.9a4,4,0,0,1,4-4H274.88a4,4,0,0,1,4,4Z" transform="translate(-113 -91.07)"/><polygon class="cls-1" points="253.05 98.16 263.49 98.16 258.36 80.42 253.05 98.16"/><path class="cls-1" d="M410.3,165.3a3.4,3.4,0,0,0-3.24-1.88h-2V200h2.17a3.3,3.3,0,0,0,3.1-2l6.12-12.16a9.83,9.83,0,0,0,1.14-4,8.3,8.3,0,0,0-.92-3.84Z" transform="translate(-113 -91.07)"/><path class="cls-1" d="M532.21,119v-5.85a22.08,22.08,0,0,0-22.07-22.08H301.75a22.08,22.08,0,0,0-22.07,22.08V119Zm-27.93-16.29a3.49,3.49,0,1,1-3.49,3.49A3.49,3.49,0,0,1,504.28,102.71Zm-12.8,0A3.49,3.49,0,1,1,488,106.2,3.49,3.49,0,0,1,491.48,102.71Zm-14,0A3.49,3.49,0,1,1,474,106.2,3.49,3.49,0,0,1,477.52,102.71Z" transform="translate(-113 -91.07)"/><path class="cls-1" d="M279.68,124.82V230.76a22.08,22.08,0,0,0,22.07,22.08H510.14a22.08,22.08,0,0,0,22.07-22.08V124.82Zm106.25,80.43a2.75,2.75,0,0,1-2,.91,2.92,2.92,0,0,1-3.1-2.25l-2.51-8.41H364.17l-2.73,9a1.84,1.84,0,0,1-.92,1.12,3.13,3.13,0,0,1-1.77.54,3,3,0,0,1-2.25-.92,3.14,3.14,0,0,1-.88-2.25,4,4,0,0,1,.18-1.15l12.54-42.37a3,3,0,0,1,3.1-2.32,2.66,2.66,0,0,1,2.87,2l12.35,43a3.1,3.1,0,0,1,.15.92A3,3,0,0,1,385.93,205.25Zm36-16.53L415.76,201a9.51,9.51,0,0,1-3.39,3.78,9,9,0,0,1-4.95,1.42H395.59a3.11,3.11,0,0,1-3.1-3.1,3.12,3.12,0,0,1,.9-2.23,2.94,2.94,0,0,1,2.2-.94h3.24V163.42h-3.17a2.91,2.91,0,0,1-2.19-.94,3.09,3.09,0,0,1-.91-2.23,3,3,0,0,1,.91-2.18,3,3,0,0,1,2.19-.92H407.9a8.59,8.59,0,0,1,4.67,1.55,9.64,9.64,0,0,1,3.34,3.65L422,174.74a15.14,15.14,0,0,1,1.73,7A15.29,15.29,0,0,1,421.92,188.72Zm39,10.47a6.85,6.85,0,0,1-2,4.87,6.1,6.1,0,0,1-4.48,2.1H437.77a8.53,8.53,0,0,1-8.22-8.08q0-3.47,3.24-3.46a2.89,2.89,0,0,1,2.14.9,2.94,2.94,0,0,1,.89,2.12,2.2,2.2,0,0,0,.68,1.66,2.36,2.36,0,0,0,1.71.66h15.42c.66,0,1-.44,1.07-1.32v-5.72L431,175.29c-1.09-1.4-1.54-2.59-1.37-3.57l0-7.45a6.92,6.92,0,0,1,2.06-5,6.72,6.72,0,0,1,5-2.12h16.11a8.07,8.07,0,0,1,5.59,2.49,8,8,0,0,1,2.63,6,3,3,0,0,1-.93,2.25,3,3,0,0,1-2.09.92,2.68,2.68,0,0,1-2.17-.72,7.65,7.65,0,0,1-1.13-2.67,2.33,2.33,0,0,0-2.38-2H437c-.74,0-1.11.24-1.11.7v6.9l23.68,17.85a3,3,0,0,1,1.47,3Z" transform="translate(-113 -91.07)"/><path class="cls-1" d="M415.41,464.11c-2,0-4.14-.08-6.57-.24a85.24,85.24,0,0,1,6.41-170.23h.57a85.24,85.24,0,0,1,7.12,170.14C420.37,464,417.84,464.11,415.41,464.11Zm.39-162.19h-.54a77,77,0,0,0-5.83,153.7c2.19.14,4.17.21,6,.21,2.19,0,4.48-.1,6.82-.3a77,77,0,0,0-6.43-153.61Z" transform="translate(-113 -91.07)"/><rect class="cls-1" x="298.28" y="206.71" width="8.27" height="162.19"/><rect class="cls-1" x="221.32" y="283.66" width="162.19" height="8.27"/><path class="cls-1" d="M415.41,351.48a105,105,0,0,1-64.29-21.86L347.68,327l2.82-3.31a85.1,85.1,0,0,1,64.75-30h.57a85.09,85.09,0,0,1,64.51,30l2.81,3.31-3.43,2.65a105,105,0,0,1-64.3,21.86Zm-55.63-25.76a97.11,97.11,0,0,0,111.27,0,76.72,76.72,0,0,0-55.25-23.8h-.54A76.81,76.81,0,0,0,359.78,325.72Z" transform="translate(-113 -91.07)"/><path class="cls-1" d="M415.41,464.11c-2,0-4.14-.08-6.57-.24l-1.26-.08-1-.76a103.31,103.31,0,0,1-32.29-41.85,102.17,102.17,0,0,1-8.08-40.05c0-.79,0-1.59,0-2.38a103.22,103.22,0,0,1,46.86-84.14l.3-.2h0l1-.76h1.39a85.24,85.24,0,0,1,7.1,170.14C420.37,464,417.84,464.11,415.41,464.11Zm-4.77-8.42c1.73.1,3.31.14,4.77.14,2.19,0,4.48-.1,6.82-.3A77,77,0,0,0,417,301.94a94.93,94.93,0,0,0-42.52,77c0,.73,0,1.46,0,2.16A94.16,94.16,0,0,0,381.92,418,95.13,95.13,0,0,0,410.64,455.69Z" transform="translate(-113 -91.07)"/><path class="cls-1" d="M415.41,464.11c-2,0-4.14-.08-6.57-.24a84.81,84.81,0,0,1-57.42-28.69l-3-3.41,3.67-2.67a107.09,107.09,0,0,1,63.32-20.57,107.55,107.55,0,0,1,63.33,20.57l3.67,2.67-3,3.41a84.82,84.82,0,0,1-56.47,28.6C420.37,464,417.84,464.11,415.41,464.11Zm-54.59-31a76.51,76.51,0,0,0,48.61,22.5c2.19.14,4.17.21,6,.21,2.19,0,4.48-.1,6.82-.3A76.42,76.42,0,0,0,470,433.12a96.78,96.78,0,0,0-17.09-9,99.16,99.16,0,0,0-92.1,9Z" transform="translate(-113 -91.07)"/><path class="cls-1" d="M415.41,464.11c-2,0-4.14-.08-6.57-.24a85.24,85.24,0,0,1,6.41-170.23h1.26l1.49,1a100.78,100.78,0,0,1,39.28,43.56,99.65,99.65,0,0,1,9.55,40.61c0,.76,0,1.56,0,2.35A100.83,100.83,0,0,1,425,463l-.93.67-1.14.1C420.37,464,417.84,464.11,415.41,464.11Zm-1.29-162.18a77,77,0,0,0-4.69,153.69,80.79,80.79,0,0,0,11.65,0,92.5,92.5,0,0,0,37.5-74.49c0-.7,0-1.43,0-2.13a91.53,91.53,0,0,0-8.77-37.3A92.53,92.53,0,0,0,414.12,301.93Z" transform="translate(-113 -91.07)"/><path class="cls-1" d="M643.85,300.59H562a9.58,9.58,0,0,0-9.58,9.58V456.42A9.58,9.58,0,0,0,562,466h81.85a9.58,9.58,0,0,0,9.58-9.58V310.17A9.58,9.58,0,0,0,643.85,300.59Zm-47.24,3.68a1.17,1.17,0,0,1,1.16-1.16H610.6a1.17,1.17,0,0,1,1.16,1.16v1.47a1.16,1.16,0,0,1-1.16,1.16H597.77a1.16,1.16,0,0,1-1.16-1.16Zm6.95,155.42a4.42,4.42,0,1,1,4.42-4.42A4.42,4.42,0,0,1,603.56,459.69Zm44.82-23.47a9.58,9.58,0,0,1-9.58,9.58H567.05a9.58,9.58,0,0,1-9.58-9.58V319.15a9.58,9.58,0,0,1,9.58-9.58H638.8a9.58,9.58,0,0,1,9.58,9.58Z" transform="translate(-113 -91.07)"/></svg>