<svg id="Layer_1" data-name="Layer 1" xmlns="http://www.w3.org/2000/svg" viewBox="0 0 497 305"><defs><style>.cls-1{fill:#bf9456;}</style></defs><path class="cls-1" d="M635.89,385.6a57,57,0,0,0-109.78,0H515a7,7,0,0,1-6.94-7V207.92A7,7,0,0,1,515,201h61.52a6.87,6.87,0,0,1,4.91,2L648,269.58a6.86,6.86,0,0,1,2,4.91V298H629a11,11,0,0,0,0,22h21v58.65a7,7,0,0,1-7,7ZM523,295a8,8,0,0,0-8,8v28a8,8,0,0,0,16,0V303A8,8,0,0,0,523,295Zm-2.83-88a5.18,5.18,0,0,0-5.17,5.17v55.66a5.18,5.18,0,0,0,5.17,5.17H630.34a5.17,5.17,0,0,0,3.63-8.86l-56.51-55.65a5.17,5.17,0,0,0-3.64-1.49Z" transform="translate(-155 -135)"/><path class="cls-1" d="M576.48,203a4.91,4.91,0,0,1,3.5,1.45L646.55,271a4.91,4.91,0,0,1,1.45,3.5V296H629a13,13,0,0,0,0,26h19v56.65a5,5,0,0,1-5,5h-5.67a59,59,0,0,0-112.76,0H515a5,5,0,0,1-4.94-5V207.92A5,5,0,0,1,515,203h61.52m-56.31,72H630.34a7.18,7.18,0,0,0,5-12.29l-56.52-55.65a7.14,7.14,0,0,0-5-2.06H520.17a7.18,7.18,0,0,0-7.17,7.17v55.65a7.18,7.18,0,0,0,7.17,7.18M523,341a10,10,0,0,0,10-10V303a10,10,0,0,0-20,0v28a10,10,0,0,0,10,10m53.48-142H515a9,9,0,0,0-8.94,8.95V378.65a9,9,0,0,0,8.94,9h12.69a55,55,0,0,1,106.7,0h8.7a9,9,0,0,0,9-9V318H629a9,9,0,0,1,0-18h23V274.49a9,9,0,0,0-2.62-6.33l-66.57-66.57a9,9,0,0,0-6.33-2.62Zm-56.31,72a3.17,3.17,0,0,1-3.17-3.18V212.17a3.17,3.17,0,0,1,3.17-3.17h53.65a3.18,3.18,0,0,1,2.23.91l56.52,55.65a3.18,3.18,0,0,1-2.23,5.44H520.17ZM523,337a6,6,0,0,1-6-6V303a6,6,0,0,1,12,0v28a6,6,0,0,1-6,6Z" transform="translate(-155 -135)"/><path class="cls-1" d="M266,354a43,43,0,1,0,43,43A43,43,0,0,0,266,354Zm0,63a20,20,0,1,1,20-20A20,20,0,0,1,266,417Z" transform="translate(-155 -135)"/><path class="cls-1" d="M581,354a43,43,0,1,0,43,43A43,43,0,0,0,581,354Zm0,63a20,20,0,1,1,20-20A20,20,0,0,1,581,417Z" transform="translate(-155 -135)"/><path class="cls-1" d="M475.64,135H175.54A20.53,20.53,0,0,0,155,155.54V303H326a7,7,0,0,1,0,14H155v20h10a12,12,0,0,1,12,12v8a12,12,0,0,1-12,12h-9.9a20.53,20.53,0,0,0,20.44,18.6h37.11a55,55,0,0,1,106.7,0H475.64a20.53,20.53,0,0,0,20.53-20.53V155.54A20.53,20.53,0,0,0,475.64,135Z" transform="translate(-155 -135)"/></svg>