<svg id="Layer_1" data-name="Layer 1" xmlns="http://www.w3.org/2000/svg" viewBox="0 0 304.51 136.09"><defs><style>.cls-1,.cls-2{isolation:isolate;}.cls-2{font-size:101px;font-family:Prestage;letter-spacing:0.08em;}.cls-2,.cls-6{fill:#fff;}.cls-3{letter-spacing:0.06em;}.cls-4{letter-spacing:0.06em;}.cls-5{letter-spacing:0.08em;}</style></defs><g id="Logo"><g id="_Art_san_2" data-name=" Art san 2" class="cls-1"><text class="cls-2" transform="translate(0 125.69)">A<tspan class="cls-3" x="50.09" y="0">r</tspan><tspan x="90.8" y="0">t </tspan><tspan class="cls-4" x="167.56" y="0">s</tspan><tspan class="cls-5" x="208.26" y="0">an</tspan></text></g><g id="Union_1" data-name="Union 1"><path class="cls-6" d="M252.84,327.88h13.09v9.44h-.05l0,1.05c0,.22,0,.45,0,.68v18.62a3,3,0,0,1-1,2.24,6.26,6.26,0,0,1-2.72,1.42l-.74.2v21.93l.87.11a6.29,6.29,0,0,1,2.68.74V454.2a4.47,4.47,0,0,1-1.79.6,23.5,23.5,0,0,1-7.73,0,4.47,4.47,0,0,1-1.79-.6V384.31a6.22,6.22,0,0,1,2.67-.74l.88-.11V361.53l-.74-.2a6.26,6.26,0,0,1-2.72-1.42,3,3,0,0,1-1-2.24V339.05c0-.23,0-.46,0-.68l0-1.05h0Z" transform="translate(-111.59 -327.88)"/></g></g></svg>