<svg id="Layer_1" data-name="Layer 1" xmlns="http://www.w3.org/2000/svg" viewBox="0 0 332.79 135.95"><defs><style>.cls-1,.cls-2{isolation:isolate;}.cls-2{font-size:101px;font-family:Prestage;letter-spacing:0.08em;}.cls-2,.cls-5{fill:#fff;}.cls-3{letter-spacing:0.06em;}.cls-4{letter-spacing:0.08em;}</style></defs><g id="Logo"><g id="_Art_san_2" data-name=" Art san 2" class="cls-1"><text class="cls-2" transform="translate(0 125.54)"><tspan xml:space="preserve"> A</tspan><tspan class="cls-3" x="78.37" y="0">r</tspan><tspan class="cls-4" x="119.08" y="0">t </tspan><tspan class="cls-3" x="195.84" y="0">s</tspan><tspan class="cls-4" x="236.54" y="0">an</tspan></text></g><g id="Union_1" data-name="Union 1"><path class="cls-5" d="M280.66,329h13.09v9.33h-.05l0,1c0,.22,0,.45,0,.67v18.41a3,3,0,0,1-1,2.22,6.36,6.36,0,0,1-2.72,1.41l-.74.2V384l.88.11a6.29,6.29,0,0,1,2.67.73v69.1a4.55,4.55,0,0,1-1.79.59,24.25,24.25,0,0,1-7.73,0,4.55,4.55,0,0,1-1.79-.59v-69.1a6.37,6.37,0,0,1,2.68-.73l.87-.11V362.3l-.74-.2a6.36,6.36,0,0,1-2.72-1.41,3,3,0,0,1-1-2.22V340.06c0-.22,0-.44,0-.67l0-1h0Z" transform="translate(-111.59 -328.03)"/><path class="cls-5" d="M281.66,330v7.33h.09l-.07,2.07c0,.21,0,.42,0,.63v18.41a2,2,0,0,0,.67,1.5,5.35,5.35,0,0,0,2.29,1.16l1.48.4v23.33l-1.75.22a10,10,0,0,0-1.8.37v67.84a20.71,20.71,0,0,0,9.31,0V385.45a10,10,0,0,0-1.8-.37l-1.75-.22V361.53l1.48-.4a5.25,5.25,0,0,0,2.29-1.16,2,2,0,0,0,.67-1.5V340.06c0-.21,0-.42,0-.63l-.08-2.07h.09V330H281.66m-2-2h15.09v11.33h0c0,.23,0,.47,0,.7v18.41c0,2.39-1.94,3.92-4.44,4.59v20c2,.25,3.55.78,3.55,1.57v69.39c0,1.18-3.33,1.76-6.65,1.76s-6.66-.58-6.66-1.76V384.67c0-.79,1.53-1.32,3.55-1.57v-20c-2.49-.67-4.44-2.2-4.44-4.59V340.06c0-.23,0-.47,0-.7h0Z" transform="translate(-111.59 -328.03)"/></g></g></svg>