<svg xmlns="http://www.w3.org/2000/svg" xmlns:xlink="http://www.w3.org/1999/xlink" width="343" height="251.536" viewBox="0 0 343 251.536"><defs><filter id="a" x="0" y="28.536" width="343" height="223" filterUnits="userSpaceOnUse"><feOffset dy="3" input="SourceAlpha"/><feGaussianBlur stdDeviation="3" result="b"/><feFlood flood-opacity="0.161"/><feComposite operator="in" in2="b"/><feComposite in="SourceGraphic"/></filter></defs><g transform="translate(-223 -75.397)"><g transform="matrix(1, 0, 0, 1, 223, 75.4)" filter="url(#a)"><text transform="translate(9 125.54)" fill="#fff" font-size="101" font-family="Prestage" letter-spacing="0.08em"><tspan x="0" y="0" xml:space="preserve"> Art san</tspan><tspan x="0" y="104"></tspan></text></g><g transform="translate(415.164 203.194) rotate(180)" fill="#fff"><path d="M 14.08609771728516 126.7973937988281 L 0.9999979138374329 126.7973937988281 L 0.9999979138374329 117.4692077636719 L 1.050564527511597 117.4692077636719 L 1.012214541435242 116.432258605957 C 1.004114627838135 116.2130279541016 0.9999979138374329 115.9870223999023 0.9999979138374329 115.7605590820313 L 0.9999979138374329 97.35095977783203 C 0.9999979138374329 96.50179290771484 1.328397870063782 95.75634002685547 1.976081252098083 95.13530731201172 C 2.615814685821533 94.52188873291016 3.557047843933105 94.03481292724609 4.698014736175537 93.72674560546875 L 5.437331199645996 93.52710723876953 L 5.437331199645996 92.76130676269531 L 5.437331199645996 72.72835540771484 L 5.437331199645996 71.84714508056641 L 4.563114643096924 71.73631286621094 C 2.850236415863037 71.51913452148438 2.104893445968628 71.17452239990234 1.888164520263672 71.00836181640625 L 1.888164520263672 1.905496954917908 C 2.028292417526245 1.799728512763977 2.476341009140015 1.537791728973389 3.678481340408325 1.312209129333496 C 4.751414775848389 1.110875844955444 6.124014377593994 1.000009179115295 7.54341459274292 1.000009179115295 C 8.962814331054688 1.000009179115295 10.33541488647461 1.110875844955444 11.40834808349609 1.312209129333496 C 12.61048793792725 1.537791728973389 13.05853652954102 1.799728512763977 13.19866466522217 1.905496954917908 L 13.19866466522217 71.00836181640625 C 12.98193836212158 71.17452239990234 12.23660945892334 71.51913452148438 10.52373123168945 71.73631286621094 L 9.649514198303223 71.84714508056641 L 9.649514198303223 72.72835540771484 L 9.649514198303223 92.76154327392578 L 9.649514198303223 93.52734375 L 10.38883113861084 93.72697448730469 C 11.52971458435059 94.03501129150391 12.47078132629395 94.52202606201172 13.11033153533936 95.13536071777344 C 13.75779819488525 95.75629425048828 14.08609771728516 96.50172424316406 14.08609771728516 97.35095977783203 L 14.08609771728516 115.7605590820313 C 14.08609771728516 115.9822769165039 14.08198165893555 116.2085418701172 14.07384777069092 116.4330444335938 L 14.03634834289551 117.4692077636719 L 14.08609771728516 117.4692077636719 L 14.08609771728516 126.7973937988281 Z" stroke="none"/><path d="M 13.08610248565674 125.7973937988281 L 13.08610248565674 118.4692077636719 L 12.99961185455322 118.4692077636719 L 13.0745210647583 116.3969573974609 C 13.0822114944458 116.1843032836914 13.08610248565674 115.9701766967773 13.08610248565674 115.7605590820313 L 13.08610248565674 97.35095977783203 C 13.08610248565674 96.76879119873047 12.87386608123779 96.29412078857422 12.41817474365234 95.85710144042969 C 11.89939308166504 95.35959625244141 11.10750198364258 94.95682525634766 10.12813854217529 94.69239044189453 L 8.649502754211426 94.29313659667969 L 8.649502754211426 92.76153564453125 L 8.649502754211426 72.72835540771484 L 8.649502754211426 70.96591949462891 L 10.39795684814453 70.74424743652344 C 11.30645084381104 70.62905883789063 11.86933898925781 70.4852294921875 12.19866561889648 70.3748779296875 L 12.19866561889648 2.53495717048645 C 11.47562408447266 2.299033403396606 9.906110763549805 2.00001072883606 7.543411731719971 2.00001072883606 C 5.180712699890137 2.00001072883606 3.611199140548706 2.299033403396606 2.888156890869141 2.53495717048645 L 2.888156890869141 70.37487030029297 C 3.21748423576355 70.4852294921875 3.780372381210327 70.62905883789063 4.688866138458252 70.74424743652344 L 6.437320709228516 70.96591949462891 L 6.437320709228516 72.72835540771484 L 6.437320709228516 92.76132202148438 L 6.437320709228516 94.29292297363281 L 4.958666324615479 94.69217681884766 C 3.979211568832397 94.95664978027344 3.187175273895264 95.35946655273438 2.668175220489502 95.85710144042969 C 2.212320566177368 96.29421234130859 1.999993324279785 96.76889801025391 1.999993324279785 97.35095977783203 L 1.999993324279785 115.7605590820313 C 1.999993324279785 115.9746475219727 2.003866195678711 116.188232421875 2.011520624160767 116.3954086303711 L 2.088102340698242 118.4692077636719 L 1.999993324279785 118.4692077636719 L 1.999993324279785 125.7973937988281 L 13.08610248565674 125.7973937988281 M 15.08610248565674 127.7973937988281 L -6.640486390097067e-06 127.7973937988281 L -6.640486390097067e-06 116.4692077636719 L 0.01288426853716373 116.4692077636719 C 0.004229723010212183 116.2348251342773 -6.640486390097067e-06 115.9983367919922 -6.640486390097067e-06 115.7605590820313 L -6.640486390097067e-06 97.35095977783203 C -6.640486390097067e-06 94.96426391601563 1.944829702377319 93.43431854248047 4.437320709228516 92.76132202148438 L 4.437320709228516 72.72835540771484 C 2.416266202926636 72.47212219238281 0.8881570100784302 71.94647979736328 0.8881570100784302 71.15135955810547 L 0.8881570100784302 1.759828805923462 C 0.8881570100784302 0.5866106152534485 4.215784072875977 1.546963744658569e-06 7.543411731719971 1.546963744658569e-06 C 10.87103843688965 1.546963744658569e-06 14.19866561889648 0.5866106152534485 14.19866561889648 1.759828805923462 L 14.19866561889648 71.15135955810547 C 14.19866561889648 71.94647979736328 12.67057514190674 72.47212219238281 10.64950275421143 72.72835540771484 L 10.64950275421143 92.76153564453125 C 13.14201164245605 93.43455505371094 15.08610248565674 94.96426391601563 15.08610248565674 97.35095977783203 L 15.08610248565674 115.7605590820313 C 15.08610248565674 115.9983367919922 15.08168411254883 116.2348251342773 15.07321166992188 116.4692077636719 L 15.08610248565674 116.4692077636719 L 15.08610248565674 127.7973937988281 Z" stroke="none" fill="#fff"/></g></g></svg>