<svg xmlns="http://www.w3.org/2000/svg" width="160.238" height="131.653" viewBox="0 0 160.238 131.653"><g transform="translate(-135.294 -88.105)"><g transform="translate(151.981 121.523)"><rect width="126.865" height="71.419" stroke-width="8" fill="none" stroke="#754c24" stroke-linejoin="round" transform="translate(0 0)"/><path d="M0,0H126.865V44.927H0Z" transform="translate(0 49.308)" fill="#c69c6d" stroke="#754c24" stroke-linejoin="round" stroke-width="8"/></g><g transform="translate(139.294 92.605)"><path d="M0,0H25.373a0,0,0,0,1,0,0V4.553A12.687,12.687,0,0,1,12.687,17.239h0A12.687,12.687,0,0,1,0,4.553V0A0,0,0,0,1,0,0Z" transform="translate(0 28.545)" fill="#c69c6d" stroke="#754c24" stroke-linejoin="bevel" stroke-width="8"/><path d="M0,0H25.373a0,0,0,0,1,0,0V4.553A12.687,12.687,0,0,1,12.687,17.239h0A12.687,12.687,0,0,1,0,4.553V0A0,0,0,0,1,0,0Z" transform="translate(25.373 28.545)" fill="#c69c6d" stroke="#754c24" stroke-linejoin="bevel" stroke-width="8"/><path d="M0,0H25.373a0,0,0,0,1,0,0V4.553A12.687,12.687,0,0,1,12.687,17.239h0A12.687,12.687,0,0,1,0,4.553V0A0,0,0,0,1,0,0Z" transform="translate(50.746 28.545)" fill="#c69c6d" stroke="#754c24" stroke-linejoin="bevel" stroke-width="8"/><path d="M0,0H25.373a0,0,0,0,1,0,0V4.553A12.687,12.687,0,0,1,12.687,17.239h0A12.687,12.687,0,0,1,0,4.553V0A0,0,0,0,1,0,0Z" transform="translate(76.119 28.545)" fill="#c69c6d" stroke="#754c24" stroke-linejoin="bevel" stroke-width="8"/><path d="M0,0H25.373a0,0,0,0,1,0,0V4.553A12.687,12.687,0,0,1,12.687,17.239h0A12.687,12.687,0,0,1,0,4.553V0A0,0,0,0,1,0,0Z" transform="translate(101.492 28.545)" fill="#c69c6d" stroke="#754c24" stroke-linejoin="bevel" stroke-width="8"/><path d="M0,0H25.373a0,0,0,0,1,0,0V4.553A12.687,12.687,0,0,1,12.687,17.239h0A12.687,12.687,0,0,1,0,4.553V0A0,0,0,0,1,0,0Z" transform="translate(126.865 28.545)" fill="#c69c6d" stroke="#754c24" stroke-linejoin="bevel" stroke-width="8"/><g transform="translate(0 0)"><path d="M164.667,122.249H139.294L162.95,91.605h17.488Z" transform="translate(-139.294 -91.605)" fill="#c69c6d" stroke="#754c24" stroke-linejoin="bevel" stroke-width="9"/><path d="M239.457,122.249H214.084l15.77-30.644h17.488Z" transform="translate(-188.711 -91.605)" fill="#c69c6d" stroke="#754c24" stroke-linejoin="bevel" stroke-width="9"/><path d="M314.247,122.249H288.874l7.885-30.644h17.488Z" transform="translate(-238.128 -91.605)" fill="#c69c6d" stroke="#754c24" stroke-linejoin="bevel" stroke-width="9"/><path d="M389.037,122.249H363.664V91.605h17.488Z" transform="translate(-287.545 -91.605)" fill="#c69c6d" stroke="#754c24" stroke-linejoin="bevel" stroke-width="9"/><path d="M448.469,122.249H423.1l-7.885-30.644H432.7Z" transform="translate(-321.604 -91.605)" fill="#c69c6d" stroke="#754c24" stroke-linejoin="bevel" stroke-width="9"/><path d="M507.9,122.249H482.529l-15.77-30.644h17.488Z" transform="translate(-355.664 -91.605)" fill="#c69c6d" stroke="#754c24" stroke-linejoin="bevel" stroke-width="9"/></g></g></g></svg>