<svg xmlns="http://www.w3.org/2000/svg" width="209.124" height="129.891" viewBox="0 0 209.124 129.891"><g transform="translate(-92.941 -104.646)"><path d="M551.614,305.517H487.471V263.824h54.774c11.558,0,18.5,8.741,15.72,18.783Z" transform="translate(-260.581 -99.516)" fill="#c69c6d" stroke="#754c24" stroke-linejoin="round" stroke-miterlimit="10" stroke-width="8"/><path d="M18.99,0C29.478,0,37.98,7.1,37.98,15.865s-8.5,15.865-18.99,15.865S0,24.628,0,15.865,8.5,0,18.99,0Z" transform="translate(243.614 219.183) rotate(-71.108)" fill="#fff" stroke="#754c24" stroke-width="8"/><rect width="36.84" height="10.634" rx="5.317" transform="translate(228.881 130.189)" fill="#c69c6d" stroke="#754c24" stroke-miterlimit="10" stroke-width="8"/><path d="M536.465,221.724H487.471V198.176h34.884Z" transform="translate(-260.581 -57.416)" fill="#fff" stroke="#754c24" stroke-linejoin="bevel" stroke-width="8"/><path d="M279.084,206l-116.672.531,14.432-97.355,115.79-.531Z" transform="translate(-41.986 0)" fill="#fff" stroke="#754c24" stroke-linejoin="round" stroke-miterlimit="10" stroke-width="8"/><ellipse cx="18.99" cy="15.865" rx="18.99" ry="15.865" transform="translate(130.243 216.676) rotate(-71.108)" fill="#fff" stroke="#754c24" stroke-linejoin="bevel" stroke-width="8"/><line y1="0.156" x2="41.345" transform="translate(139.835 140.76)" stroke-width="8" stroke="#754c24" stroke-linecap="round" stroke-linejoin="bevel" fill="#c69c6d"/><line x2="60.135" transform="translate(96.941 127.594)" stroke-width="8" stroke="#754c24" stroke-linecap="round" stroke-linejoin="bevel" fill="#c69c6d"/><line y1="0.702" x2="53.278" transform="translate(106.519 159.37)" stroke-width="8" stroke="#754c24" stroke-linecap="round" stroke-linejoin="bevel" fill="#c69c6d"/><path d="M4.114,0C6.386,0,8.228,1.539,8.228,3.437S6.386,6.874,4.114,6.874,0,5.335,0,3.437,1.842,0,4.114,0Z" transform="translate(260.271 209.188) rotate(-71.108)" fill="#754c24" stroke="#754c24" stroke-width="8"/><path d="M4.114,0C6.386,0,8.228,1.539,8.228,3.437S6.386,6.874,4.114,6.874,0,5.335,0,3.437,1.842,0,4.114,0Z" transform="translate(146.998 206.689) rotate(-71.108)" fill="#754c24" stroke="#754c24" stroke-width="8"/></g></svg>