<svg xmlns="http://www.w3.org/2000/svg" width="191.322" height="126.727" viewBox="0 0 191.322 126.727"><g transform="translate(-169.58 -267.576)"><path d="M427.971,398.511l-.469,57.408-165.762-2.2.3-36.934.167-20.474Z" transform="translate(-71.069 -71.545)" fill="#c69c6d" stroke="#754c24" stroke-linecap="round" stroke-linejoin="round" stroke-width="8"/><path d="M686.882,551.465" transform="translate(-351.932 -159.581)" fill="none" stroke="#754c24" stroke-linecap="round" stroke-linejoin="round" stroke-width="8"/><line x1="102.284" y1="1.358" transform="translate(252.924 374.039)" stroke-width="8" stroke="#754c24" stroke-linecap="round" stroke-linejoin="round" fill="none"/><line y1="0.674" x2="85.291" transform="translate(192.425 359.736)" stroke-width="8" stroke="#754c24" stroke-linecap="round" stroke-linejoin="round" fill="none"/><line x2="41.44" y2="0.55" transform="translate(192.247 382.191)" stroke-width="8" stroke="#754c24" stroke-linecap="round" stroke-linejoin="round" fill="none"/><line x2="98.591" y2="1.309" transform="translate(191.021 339.32)" stroke-width="8" stroke="#754c24" stroke-linecap="round" stroke-linejoin="round" fill="none"/><line x1="44.554" y1="0.592" transform="translate(310.93 340.912)" stroke-width="8" stroke="#754c24" stroke-linecap="round" stroke-linejoin="round" fill="none"/><line x1="23.235" y1="0.308" transform="translate(332.122 356.768)" stroke-width="8" stroke="#754c24" stroke-linecap="round" stroke-linejoin="round" fill="none"/><line x2="23.235" y2="0.308" transform="translate(192.508 350.334)" stroke-width="8" stroke="#754c24" stroke-linecap="round" stroke-linejoin="round" fill="none"/><path d="M266.1,557.056" transform="translate(-73.946 -162.753)" fill="none" stroke="#754c24" stroke-linecap="round" stroke-linejoin="round" stroke-width="8"/><path d="M402.854,352.732s-31.169-.1-33.412-20.7c-2.468-22.67,22.633-11.3,22.633-11.3" transform="translate(-100.291 -27.042)" fill="none" stroke="#754c24" stroke-linecap="round" stroke-linejoin="round" stroke-width="8"/><path d="M678.22,434.191" transform="translate(-346.21 -93.038)" fill="#c69c6d" stroke="#754c24" stroke-linecap="round" stroke-linejoin="bevel" stroke-width="8"/><path d="M688,444.176" transform="translate(-352.67 -98.704)" fill="#c69c6d" stroke="#754c24" stroke-linecap="round" stroke-linejoin="bevel" stroke-width="8"/><path d="M688.284,512.889" transform="translate(-352.858 -137.692)" fill="#c69c6d" stroke="#754c24" stroke-linecap="round" stroke-linejoin="bevel" stroke-width="8"/><path d="M199.592,531.565" transform="translate(-30.012 -148.289)" fill="#c69c6d" stroke="#754c24" stroke-linecap="round" stroke-linejoin="bevel" stroke-width="8"/><path d="M2.762.74,12.229,0,9.468,29.743,0,30.483Z" transform="translate(230.247 306.079) rotate(-67.672)" fill="#e6e6e6" stroke="#1a1a1a" stroke-linecap="round" stroke-width="4"/><line x1="9.007" y1="4.919" transform="translate(224.527 294.067)" stroke-width="4" stroke="#1a1a1a" stroke-linecap="round" stroke-linejoin="round" fill="#ccc"/><path d="M8.272.131,9.721.018c2.7-.211,4.726,1.463,4.514,3.739L11.258,35.818c-.211,2.277-2.575,4.294-5.28,4.505l-1.449.113C1.825,40.648-.2,38.974.015,36.7L2.992,4.636C3.2,2.36,5.568.343,8.272.131Z" transform="translate(184.576 283.373) rotate(-67.672)" fill="#965353" stroke="#1a1a1a" stroke-width="4"/></g></svg>